<?xml version="1.0" standalone="no"?>
<!DOCTYPE svg PUBLIC "-//W3C//DTD SVG 1.1//EN" "http://www.w3.org/Graphics/SVG/1.1/DTD/svg11.dtd" >
<svg xmlns="http://www.w3.org/2000/svg">
<metadata></metadata>
<defs>
<font id="roboto_condenseditalic" horiz-adv-x="903" >
<font-face units-per-em="2048" ascent="1536" descent="-512" />
<missing-glyph horiz-adv-x="414" />
<glyph unicode="&#xfb01;" horiz-adv-x="936" d="M73 0l183 918h-123l29 142h122l23 109q39 198 142 289t268 91q54 0 107.5 -15t114.5 -43l-60 -155q-39 21 -82.5 34.5t-98.5 13.5q-77 0 -127 -54t-70 -161l-23 -109h157l-28 -142h-157l-183 -918h-194zM732 0h-194l212 1060h194z" />
<glyph horiz-adv-x="0" />
<glyph unicode="&#xd;" horiz-adv-x="414" />
<glyph horiz-adv-x="0" />
<glyph horiz-adv-x="0" />
<glyph horiz-adv-x="34" />
<glyph unicode="&#x9;" horiz-adv-x="34" />
<glyph unicode=" "  horiz-adv-x="414" />
<glyph unicode="&#x09;" horiz-adv-x="414" />
<glyph unicode="&#xa0;" horiz-adv-x="414" />
<glyph unicode="!" horiz-adv-x="450" d="M335 475h-195l190 952h195zM239 0h-193l40 200h193z" />
<glyph unicode="&#x22;" horiz-adv-x="552" d="M373 1388l-102 -362h-97l56 353l25 150h141zM622 1388l-101 -362h-96l57 359l24 144h139z" />
<glyph unicode="#" horiz-adv-x="964" d="M518 402h-158l-138 -402h-130l136 402h-171l25 127h190l123 361h-183l25 129h202l139 408h132l-140 -408h159l139 408h132l-140 -408h156l-25 -129h-175l-122 -361h167l-25 -127h-186l-136 -402h-133zM403 529h159l123 361h-159z" />
<glyph unicode="$" horiz-adv-x="907" d="M612 363q15 99 -13.5 156.5t-116.5 112.5q-151 70 -213.5 163.5t-35.5 264.5q27 169 117.5 267t227.5 117l34 207h122l-34 -210q122 -27 177.5 -141.5t25.5 -305.5h-195q21 141 -4.5 219t-94.5 78q-71 0 -118.5 -63.5t-63.5 -165.5q-15 -100 12 -155.5t120 -113.5 q151 -74 212.5 -166t35.5 -262q-30 -175 -122 -269.5t-236 -112.5l-31 -189h-121l30 190q-130 20 -200.5 125.5t-37.5 313.5h194q-26 -164 12 -226t116 -62q75 0 129.5 63t71.5 165z" />
<glyph unicode="%" horiz-adv-x="1213" d="M241 1152q27 137 106 216t196 79q107 0 158 -84.5t26 -210.5l-15 -75q-28 -136 -106 -214.5t-194 -78.5q-108 0 -159.5 84.5t-26.5 208.5zM363 1077q-17 -79 0.5 -127t71.5 -48q49 0 88 51t54 124l15 75q16 80 -2 129t-71 49q-49 0 -88 -52t-54 -126zM628 350 q28 135 106.5 214.5t195.5 79.5q107 0 158 -85t26 -209l-14 -77q-29 -137 -107 -215.5t-193 -78.5q-108 0 -160 84.5t-27 209.5zM751 273q-16 -78 2 -127t70 -49q51 0 88.5 50.5t52.5 125.5l15 77q16 80 -2 128t-71 48q-48 0 -87 -51.5t-54 -124.5zM315 111l-88 61l757 1116 l85 -62z" />
<glyph unicode="&#x26;" horiz-adv-x="1063" d="M57 375q19 127 86 211t197 181q-46 101 -63 176.5t-4 158.5q28 172 120 258.5t234 86.5q123 0 187.5 -87t44.5 -214q-16 -101 -64 -167.5t-135 -131.5l-101 -81l195 -382q36 62 61.5 130.5t38.5 147.5h155q-22 -136 -65 -238t-116 -186l122 -238h-227l-48 95 q-75 -58 -151.5 -87t-157.5 -29q-168 0 -253.5 109t-55.5 287zM396 130q53 0 107.5 22.5t108.5 67.5l-210 421l-19 -15q-66 -71 -93 -131t-36 -115q-19 -113 17.5 -181.5t124.5 -68.5zM455 1104q-8 -50 2.5 -100.5t40.5 -113.5l95 73q52 41 73.5 82.5t30.5 95.5 q11 66 -14 110t-80 44t-95.5 -54.5t-52.5 -136.5z" />
<glyph unicode="'" horiz-adv-x="301" d="M381 1398l-109 -364h-97l56 352l24 143h148z" />
<glyph unicode="(" horiz-adv-x="559" d="M135 578q63 394 221 656.5t319 363.5l19 -113q-115 -103 -222.5 -336t-161.5 -569l-3 -19q-57 -350 -23 -574t117 -335l-54 -108q-128 100 -201.5 368t-12.5 651z" />
<glyph unicode=")" horiz-adv-x="561" d="M474 563q-63 -394 -223 -655t-323 -364l-22 108q114 103 222.5 337.5t163.5 571.5l3 19q55 346 19.5 574.5t-114.5 336.5l57 107q126 -99 202.5 -372.5t16.5 -647.5z" />
<glyph unicode="*" horiz-adv-x="736" d="M381 964l-214 94l68 138l210 -117l59 348h137l-82 -354l251 119l14 -138l-258 -98l98 -273l-127 -85l-80 289l-194 -283l-96 82z" />
<glyph unicode="+" horiz-adv-x="924" d="M622 759h296l-34 -171h-295l-89 -445h-189l89 445h-298l34 171h297l85 423h190z" />
<glyph unicode="," horiz-adv-x="380" d="M219 50q-21 -101 -79 -194.5t-138 -164.5l-88 66q48 70 77.5 137.5t45.5 149.5l34 166h181z" />
<glyph unicode="-" horiz-adv-x="555" d="M500 541h-400l30 151h400z" />
<glyph unicode="." horiz-adv-x="469" d="M239 0h-193l39 196h193z" />
<glyph unicode="/" horiz-adv-x="635" d="M58 -122h-151l733 1549h151z" />
<glyph unicode="0" horiz-adv-x="907" d="M842 552q-61 -301 -181.5 -437t-292.5 -136q-159 0 -231 148t-16 425l63 322q60 300 181 436.5t294 136.5q158 0 229.5 -148.5t17.5 -424.5zM716 903q43 210 19 301t-107 91q-76 0 -140.5 -99t-103.5 -293l-75 -379q-42 -209 -18.5 -301.5t107.5 -92.5q76 0 140 99.5 t103 294.5z" />
<glyph unicode="1" horiz-adv-x="907" d="M490 0h-193l244 1220l-218 -19l26 125l426 102z" />
<glyph unicode="2" horiz-adv-x="907" d="M758 0h-731l22 132l436 516q107 135 152 221t60 171q18 119 -10 187t-101 68q-88 0 -146.5 -78t-78.5 -214h-194q31 199 148.5 321.5t295.5 122.5q157 0 233.5 -109.5t48.5 -291.5q-22 -132 -94 -245t-207 -263l-297 -387h487z" />
<glyph unicode="3" horiz-adv-x="907" d="M361 760l7 42h128q82 0 130 65t67 180q19 122 -9.5 185t-109.5 63q-67 0 -124 -66t-74 -175h-192q29 181 142 287t270 106q159 0 240.5 -104.5t51.5 -297.5q-17 -101 -74.5 -185.5t-151.5 -129.5q91 -42 123.5 -130t14.5 -206q-34 -205 -152 -310t-285 -105 q-150 0 -239 105t-57 300h194q-20 -120 14.5 -187t113.5 -67t137 68t79 194q22 142 -9.5 201t-124.5 59h-128z" />
<glyph unicode="4" horiz-adv-x="907" d="M732 487h133l-30 -152h-133l-67 -335h-195l67 335h-460l17 112l657 980h199zM261 487h276l128 641l-2 1l-20 -30z" />
<glyph unicode="5" horiz-adv-x="907" d="M165 641l188 786h583l-27 -164h-422l-99 -418l3 -1q33 34 78 57.5t97 25.5q159 3 224.5 -122t28.5 -349q-36 -225 -145.5 -351t-289.5 -126q-144 0 -229.5 101.5t-53.5 298.5l190 4q-21 -128 11.5 -190.5t105.5 -62.5q80 0 136.5 85.5t80.5 238.5q25 151 -4 233.5 t-113 82.5q-71 0 -111.5 -36t-67.5 -110z" />
<glyph unicode="6" horiz-adv-x="907" d="M691 1447q59 0 110 -16t91 -45l-60 -146q-35 26 -72.5 40t-92.5 14q-104 0 -188 -114.5t-115 -309.5l-4 -22l2 -2q52 49 113.5 75.5t132.5 26.5q143 0 207.5 -132.5t31.5 -343.5q-37 -228 -153.5 -360.5t-280.5 -132.5q-166 0 -252.5 149t-41.5 419l50 310 q45 281 188 435.5t334 154.5zM536 802q-66 0 -117 -34.5t-88 -95.5l-21 -137q-33 -203 3 -304.5t123 -101.5q74 0 133.5 98.5t83.5 244.5q24 153 -6.5 241.5t-110.5 88.5z" />
<glyph unicode="7" horiz-adv-x="907" d="M961 1274q-235 -274 -334 -510.5t-192 -627.5l-33 -136h-193l31 136q85 352 213 622.5t320 515.5h-571l24 153h760z" />
<glyph unicode="8" horiz-adv-x="907" d="M919 1054q-24 -123 -88 -205t-159 -121q86 -47 124.5 -136t14.5 -208q-42 -212 -158 -308.5t-286 -96.5q-157 0 -241 104t-44 301q27 133 99 221.5t180 129.5q-76 44 -108.5 126.5t-9.5 192.5q40 204 149 298.5t268 94.5q144 0 220 -102t39 -291zM619 391 q26 128 -7.5 197t-109.5 69q-74 0 -137.5 -73.5t-86.5 -192.5q-27 -132 5.5 -196.5t113.5 -64.5q72 0 134.5 69.5t87.5 191.5zM724 1050q24 116 -2 180.5t-93 64.5q-64 0 -116.5 -66.5t-75.5 -178.5q-24 -121 1.5 -181.5t93.5 -60.5q63 0 116.5 65.5t75.5 176.5z" />
<glyph unicode="9" horiz-adv-x="907" d="M355 130q92 0 167.5 99.5t105.5 290.5l8 52l-3 1q-44 -61 -99.5 -92.5t-117.5 -31.5q-152 0 -223 130.5t-34 358.5q37 232 159 370.5t278 138.5q166 0 247.5 -140t39.5 -407l-60 -373q-44 -275 -176 -411.5t-316 -136.5q-55 0 -113 15.5t-104 43.5l48 145 q43 -28 87.5 -40.5t105.5 -12.5zM462 598q62 0 114.5 42.5t88.5 112.5l27 166q31 196 0 286t-119 90q-67 0 -132 -103t-88 -254q-26 -160 1.5 -250t107.5 -90z" />
<glyph unicode=":" horiz-adv-x="455" d="M240 0h-193l39 196h193zM412 863h-193l39 196h193z" />
<glyph unicode=";" horiz-adv-x="449" d="M409 863h-193l39 196h193zM250 50q-21 -101 -79 -194.5t-138 -164.5l-88 66q48 70 77.5 137.5t45.5 149.5l34 166h181z" />
<glyph unicode="&#x3c;" horiz-adv-x="813" d="M305 644l-48 -15v-3l42 -14l385 -236l-38 -188l-557 368l25 121l6 28l703 366l-38 -188z" />
<glyph unicode="=" horiz-adv-x="909" d="M849 785h-651l31 157h651zM766 374h-650l32 158h651z" />
<glyph unicode="&#x3e;" horiz-adv-x="831" d="M206 888l37 184l575 -367l-6 -26h1l-24 -122l-722 -368l36 185l501 242l49 15l1 3l-43 16z" />
<glyph unicode="?" horiz-adv-x="785" d="M264 400q27 132 62 186.5t140 148.5q82 93 126.5 160.5t65.5 165.5q22 118 -3.5 173.5t-98.5 55.5q-55 0 -110 -55.5t-75 -153.5h-195q37 177 148.5 271.5t262.5 94.5q152 0 226 -102.5t39 -280.5q-28 -139 -97 -233t-186 -203q-54 -51 -74 -95.5t-36 -132.5h-195zM380 0 h-197l39 194h197z" />
<glyph unicode="@" horiz-adv-x="1462" d="M1389 499q-50 -217 -168.5 -368.5t-303.5 -151.5q-58 0 -93 44t-38 122l-3 1q-53 -84 -113 -125t-132 -41q-101 0 -136 118t17 310q71 255 190.5 403.5t252.5 148.5q83 0 133.5 -26.5t102.5 -77.5l-3 -3h4l-153 -566q-31 -115 -19 -155.5t47 -40.5q87 0 168 115t123 293 q89 375 9.5 577.5t-340.5 202.5q-228 0 -422 -222t-278 -589q-89 -370 -3.5 -582t331.5 -212q64 0 141 20.5t133 53.5l9 -105q-63 -42 -147.5 -64.5t-162.5 -22.5q-291 0 -414 244t-25 668q100 426 329.5 676t533.5 250q287 0 406.5 -241t23.5 -654zM580 408 q-37 -143 -29 -219t62 -76q45 0 89.5 29t92.5 106q1 9 3 18.5t6 20.5l142 529q-18 9 -37 14.5t-41 5.5q-88 0 -160 -106.5t-128 -321.5z" />
<glyph unicode="A" horiz-adv-x="1042" d="M710 367h-396l-166 -367h-197l681 1427h187l105 -1427h-196zM382 518h321l-33 634h-3z" />
<glyph unicode="B" horiz-adv-x="1019" d="M48 0l285 1427h372q174 0 260.5 -95.5t47.5 -288.5q-22 -111 -81.5 -185t-148.5 -107v-3q100 -26 135 -119.5t8 -224.5q-43 -215 -157.5 -309.5t-301.5 -94.5h-419zM376 665l-103 -514h225q85 0 147.5 66t86.5 186q26 130 0 196t-114 66h-242zM405 808h200q75 3 133 62.5 t80 168.5q26 128 -9.5 181.5t-134.5 53.5h-176z" />
<glyph unicode="C" horiz-adv-x="1008" d="M947 450q-62 -232 -176 -351.5t-305 -119.5q-186 0 -289 174t-49 438l51 255q58 293 190.5 447t326.5 154q186 0 283.5 -130.5t70.5 -358.5h-193q18 164 -24.5 250.5t-156.5 86.5q-100 0 -180.5 -123t-121.5 -324l-51 -257q-44 -216 0 -338.5t160 -122.5q101 0 162 75.5 t109 244.5h193z" />
<glyph unicode="D" horiz-adv-x="1040" d="M48 0l285 1427h329q200 0 313.5 -176.5t60.5 -443.5l-41 -203q-60 -298 -202 -451t-356 -153h-389zM498 1274l-225 -1123h189q121 0 208.5 121.5t129.5 331.5l41 205q42 215 -17.5 340t-198.5 125h-127z" />
<glyph unicode="E" horiz-adv-x="921" d="M845 662h-470l-102 -511h546l-30 -151h-741l285 1427h736l-30 -153h-541l-92 -460h469z" />
<glyph unicode="F" horiz-adv-x="919" d="M837 634h-468l-126 -634h-195l285 1427h738l-30 -153h-543l-98 -488h467z" />
<glyph unicode="G" horiz-adv-x="1057" d="M898 199q-65 -87 -174 -153.5t-267 -66.5q-194 0 -294.5 136t-49.5 389l84 423q54 271 191 395.5t342 124.5q189 0 274.5 -110.5t56.5 -314.5h-191q23 136 -16.5 204.5t-150.5 68.5q-108 0 -192 -93.5t-119 -272.5l-85 -425q-40 -200 8 -287t172 -87q82 0 137 35t89 89 l65 324h-203l29 144h398z" />
<glyph unicode="H" horiz-adv-x="1123" d="M907 0h-194l126 629h-471l-125 -629h-195l285 1427h195l-129 -646h470l130 646h194z" />
<glyph unicode="I" horiz-adv-x="478" d="M253 0h-195l285 1427h195z" />
<glyph unicode="J" horiz-adv-x="896" d="M779 1427h194l-204 -1018q-43 -215 -159.5 -322.5t-277.5 -107.5q-160 0 -239.5 106t-36.5 315h194q-30 -148 -1 -209t114 -61q68 0 127 74t85 205z" />
<glyph unicode="K" horiz-adv-x="966" d="M454 641h-95l-128 -641h-195l285 1427h195l-124 -619h104l401 619h251l-526 -710l254 -717h-222z" />
<glyph unicode="L" horiz-adv-x="878" d="M273 151h495l-30 -151h-690l285 1427h195z" />
<glyph unicode="M" horiz-adv-x="1333" d="M578 1427l55 -1168h3l521 1168h251l-285 -1427h-193l110 548l122 524l-3 1l-512 -1073h-129l-82 1072h-3l-87 -524l-110 -548h-193l285 1427h250z" />
<glyph unicode="N" horiz-adv-x="1124" d="M907 0h-194l-259 1037h-3l-208 -1037h-195l285 1427h195l260 -1034h3l208 1034h194z" />
<glyph unicode="O" horiz-adv-x="1080" d="M1023 584q-59 -293 -202 -449t-351 -156q-191 0 -293.5 175.5t-50.5 440.5l50 247q58 292 197.5 448.5t341.5 156.5q194 0 301.5 -176.5t55.5 -440.5zM878 832q42 214 -12.5 336.5t-181.5 122.5q-109 0 -191 -121t-124 -326l-50 -249q-43 -217 7.5 -339t174.5 -122 q112 0 198.5 121.5t128.5 328.5z" />
<glyph unicode="P" horiz-adv-x="1029" d="M356 563l-113 -563h-195l285 1427h432q174 0 257.5 -119.5t45.5 -312.5q-42 -212 -164 -322t-311 -110h-237zM386 715h237q91 0 158.5 79.5t91.5 198.5q26 131 -6 206t-132 75h-237z" />
<glyph unicode="Q" horiz-adv-x="1100" d="M1023 584q-35 -176 -101.5 -301.5t-163.5 -202.5l143 -209l-149 -112l-157 237q-31 -8 -61.5 -12.5t-63.5 -4.5q-191 0 -293.5 175.5t-50.5 440.5l50 247q58 292 197.5 448.5t341.5 156.5q194 0 301.5 -176.5t55.5 -440.5zM878 832q42 214 -12.5 336.5t-181.5 122.5 q-109 0 -191 -121t-124 -326l-50 -249q-43 -217 7.5 -339t174.5 -122q112 0 198.5 121.5t128.5 328.5z" />
<glyph unicode="R" horiz-adv-x="1041" d="M366 614l-123 -614h-195l285 1426h417q174 0 254.5 -104t41.5 -301q-25 -122 -89.5 -201.5t-167.5 -124.5q91 -37 115.5 -121.5t-1.5 -215.5l-25 -125q-15 -68 -14 -121.5t24 -87.5l-5 -24h-200q-24 33 -20 97t20 138l25 121q25 130 -5.5 194t-113.5 64h-223zM396 766 h203q97 0 161.5 66t89.5 184q26 134 -5.5 196t-131.5 62h-215z" />
<glyph unicode="S" horiz-adv-x="972" d="M701 326q22 117 -15.5 178.5t-161.5 129.5q-180 76 -254 175.5t-36 288.5q35 172 149.5 260.5t278.5 88.5q181 0 274.5 -115t52.5 -324h-195q26 134 -17.5 210.5t-144.5 76.5q-70 0 -128.5 -56.5t-74.5 -138.5q-23 -120 14 -178t174 -129q175 -77 244.5 -177.5 t32.5 -287.5q-36 -178 -151 -263.5t-285 -85.5q-179 0 -293 104t-68 333h194q-33 -163 28.5 -224.5t168.5 -61.5q70 0 132.5 56t80.5 140z" />
<glyph unicode="T" horiz-adv-x="951" d="M1069 1274h-326l-255 -1274h-192l255 1274h-326l31 153h844z" />
<glyph unicode="U" horiz-adv-x="1046" d="M1143 1427l-198 -989q-48 -241 -181.5 -350t-329.5 -109q-177 0 -271 118.5t-49 340.5l198 989h191l-198 -989q-34 -166 10 -237t150 -71q100 0 177 74.5t109 233.5l198 989h194z" />
<glyph unicode="V" horiz-adv-x="1026" d="M475 316l6 -80l2 -1l31 80l431 1112h206l-614 -1427h-186l-157 1427h207z" />
<glyph unicode="W" horiz-adv-x="1327" d="M934 442h3l295 985h187l-456 -1427h-174l-36 984l-3 1l-351 -985h-174l1 1427h188l-18 -987h3l349 987h150z" />
<glyph unicode="X" horiz-adv-x="1009" d="M571 863l311 564h228l-445 -707l231 -720h-234l-134 576l-319 -576h-230l455 720l-218 707h227z" />
<glyph unicode="Y" horiz-adv-x="967" d="M552 763l3 -1l371 665h216l-546 -913l-103 -514h-191l106 530l-178 897h215z" />
<glyph unicode="Z" horiz-adv-x="896" d="M240 151h537l-30 -151h-728l2 122l699 1153h-474l30 152h692l-23 -119z" />
<glyph unicode="[" horiz-adv-x="474" d="M610 1489h-126l-264 -1653h125l-24 -149h-321l313 1952h321z" />
<glyph unicode="\" horiz-adv-x="678" d="M231 1427h188l146 -1549h-189z" />
<glyph unicode="]" horiz-adv-x="474" d="M220 1639h324l-313 -1952h-324l23 149h128l264 1653h-127z" />
<glyph unicode="^" horiz-adv-x="692" d="M276 714h-162l365 713h137l82 -713h-161l-35 436v44h-3l-17 -44z" />
<glyph unicode="_" horiz-adv-x="726" d="M594 -149h-688l29 149h688z" />
<glyph unicode="`" horiz-adv-x="552" d="M564 1187h-158l-170 260h222z" />
<glyph unicode="a" horiz-adv-x="867" d="M510 0q-2 39 -2 70t3 60l-2 1q-52 -66 -117 -108.5t-135 -42.5q-117 0 -172.5 84.5t-26.5 226.5q32 165 138.5 245t282.5 80h126l21 109q21 105 -3.5 155.5t-93.5 50.5q-58 0 -104 -48.5t-60 -122.5h-195q27 139 136.5 229.5t264.5 90.5q137 0 210.5 -92t39.5 -265 l-99 -492q-12 -63 -16 -117t0 -114h-196zM332 133q55 0 110.5 39t92.5 98l44 223h-127q-73 0 -128 -59t-71 -142q-17 -77 3 -118t76 -41z" />
<glyph unicode="b" d="M840 480q-52 -258 -148 -379.5t-253 -121.5q-69 0 -121 38.5t-84 108.5l-40 -126h-169l306 1529h194l-109 -547l2 -1q45 48 96.5 73.5t112.5 25.5q147 0 207.5 -162.5t9.5 -416.5zM650 501q39 200 19 312t-115 112q-52 0 -97 -41.5t-84 -114.5l-103 -514q13 -59 48 -90.5 t96 -31.5q87 0 142.5 89t89.5 258z" />
<glyph unicode="c" horiz-adv-x="841" d="M397 130q64 0 120 57.5t68 155.5h181q-20 -157 -136 -260t-254 -103q-176 0 -252.5 133.5t-43.5 342.5l24 146q34 219 148.5 348.5t299.5 129.5q147 0 224.5 -107.5t44.5 -286.5h-181q21 110 -10.5 175.5t-104.5 65.5q-96 0 -150 -90.5t-76 -234.5l-24 -146 q-24 -154 -1.5 -240t123.5 -86z" />
<glyph unicode="d" d="M100 537q55 277 154.5 410t256.5 133q62 0 111.5 -29.5t82.5 -86.5l113 565h195l-305 -1529h-170l7 92l-3 1q-47 -56 -103 -85t-120 -29q-143 0 -207 152t-17 385zM289 516q-36 -181 -12.5 -282t116.5 -101q50 0 92.5 35.5t79.5 101.5l107 531q-15 58 -48.5 91t-87.5 33 q-84 0 -145.5 -104t-96.5 -284z" />
<glyph unicode="e" horiz-adv-x="845" d="M379 -20q-164 0 -246.5 130.5t-49.5 336.5l25 155q35 220 153 349t279 129q163 0 233.5 -122.5t36.5 -331.5l-21 -137h-505l-7 -42q-24 -147 8.5 -232t130.5 -85q86 0 146 27.5t105 74.5l35 -127q-54 -58 -136.5 -91.5t-186.5 -33.5zM515 927q-71 0 -127 -83t-81 -213 h312l7 40q19 120 -7 188t-104 68z" />
<glyph unicode="f" horiz-adv-x="576" d="M89 0l183 918h-121l28 142h122l27 137q38 183 126.5 267.5t229.5 84.5q25 0 52 -5t58 -15l-48 -146q-14 5 -31.5 8t-39.5 3q-54 0 -93.5 -51t-58.5 -146l-27 -137h161l-29 -142h-161l-183 -918h-195z" />
<glyph unicode="g" d="M101 537q55 276 155 409.5t258 133.5q68 0 120 -34.5t84 -98.5l37 113h167l-208 -1041q-46 -224 -164 -335.5t-302 -111.5q-58 0 -124 20.5t-115 55.5l71 149q40 -31 89.5 -48t107.5 -17q90 0 152.5 75.5t89.5 212.5l10 49l-3 1q-43 -45 -94.5 -68t-109.5 -23 q-143 0 -208 152t-18 385zM291 516q-36 -180 -12 -281.5t117 -101.5q51 0 93 34.5t79 98.5l108 539q-15 56 -48.5 88t-87.5 32q-86 0 -147 -103.5t-97 -284.5z" />
<glyph unicode="h" d="M408 951l3 -1q51 62 113 96t132 34q123 0 177 -105.5t10 -325.5l-130 -649h-194l131 651q31 160 8 217t-100 57q-48 0 -94.5 -33.5t-86.5 -92.5l-159 -799h-195l305 1529h195z" />
<glyph unicode="i" horiz-adv-x="437" d="M231 0h-193l212 1060h193zM499 1339h-193l38 190h193z" />
<glyph unicode="j" horiz-adv-x="439" d="M451 1060l-227 -1133q-38 -185 -122 -270t-216 -85q-26 0 -47 4.5t-47 12.5l41 152q15 -6 31.5 -9.5t32.5 -3.5q42 0 78 49.5t56 149.5l227 1133h193zM504 1342h-194l37 187h194z" />
<glyph unicode="k" horiz-adv-x="842" d="M392 486h-74l-98 -486h-194l306 1529h194l-178 -891h74l276 422h226l-361 -476l185 -584h-226z" />
<glyph unicode="l" horiz-adv-x="437" d="M231 0h-193l306 1529h193z" />
<glyph unicode="m" horiz-adv-x="1364" d="M401 945l2 -2q52 66 117 101.5t145 35.5q72 0 118 -43.5t61 -132.5q55 85 124 130.5t156 45.5q117 0 168 -109t7 -331l-128 -640h-195l128 641q35 171 14.5 227.5t-91.5 56.5q-55 -1 -102 -45.5t-80 -119.5q-3 -21 -6 -40t-7 -40l-136 -680h-195l129 646q32 163 11.5 221 t-90.5 58q-50 0 -92.5 -33.5t-78.5 -93.5l-160 -798h-194l212 1060h177z" />
<glyph unicode="n" d="M397 931l3 -1q53 73 119 111.5t143 38.5q120 0 173.5 -101.5t10.5 -316.5l-133 -662h-195l133 661q31 158 8 211t-101 53q-47 0 -94 -36.5t-88 -99.5l-157 -789h-195l211 1060h179z" />
<glyph unicode="o" d="M104 597q35 223 152.5 353t298.5 130q171 0 251 -135.5t46 -347.5l-22 -135q-36 -226 -152.5 -354t-296.5 -128q-172 0 -252.5 133.5t-46.5 348.5zM276 462q-24 -155 4.5 -243.5t124.5 -88.5q88 0 147.5 93t83.5 239l22 135q24 152 -5 241t-123 89q-90 0 -150 -92.5 t-82 -237.5z" />
<glyph unicode="p" d="M838 477q-51 -256 -148 -377t-252 -121q-67 0 -117.5 27.5t-83.5 82.5l-99 -497h-194l293 1468h176l-9 -89l2 -1q47 53 102 81.5t118 28.5q144 0 205.5 -164t11.5 -418zM649 498q39 196 15.5 311.5t-116.5 115.5q-49 0 -91.5 -37.5t-80.5 -103.5l-108 -546 q14 -53 48 -80.5t92 -27.5q85 0 144 91t92 256z" />
<glyph unicode="q" d="M100 537q55 277 154.5 410t256.5 133q65 0 115.5 -32t83.5 -92l35 104h168l-293 -1468h-195l93 468l-3 2q-42 -41 -90.5 -62t-105.5 -21q-143 0 -207 152t-17 385zM289 516q-36 -181 -12.5 -283.5t116.5 -102.5q47 0 87.5 32t77.5 92l112 564q-16 52 -49 80.5t-85 28.5 q-84 0 -145 -104.5t-97 -285.5z" />
<glyph unicode="r" horiz-adv-x="584" d="M622 893l-87 5q-48 0 -88.5 -35.5t-73.5 -100.5l-153 -762h-195l212 1060h179l-15 -136l3 -1q43 76 96.5 116.5t115.5 40.5q17 0 35 -3.5t30 -8.5z" />
<glyph unicode="s" horiz-adv-x="811" d="M524 266q10 64 -17 104.5t-118 93.5q-141 64 -201 134t-41 188q21 129 121 211.5t247 82.5t222.5 -93t53.5 -236h-193q12 80 -14 132t-91 52q-61 0 -104 -42t-51 -99q-11 -64 13 -97t119 -91q145 -61 204.5 -135t40.5 -196q-22 -139 -123 -217t-254 -78q-158 0 -236 99.5 t-56 238.5h188q-14 -105 23 -150t107 -45q63 0 106.5 40t53.5 103z" />
<glyph unicode="t" horiz-adv-x="537" d="M519 1324l-53 -264h144l-29 -142h-143l-125 -631q-19 -90 -7.5 -120.5t43.5 -30.5q18 0 35 3t32 8l-7 -136q-28 -14 -65 -22.5t-75 -8.5q-97 0 -141 73t-10 234l125 631h-109l29 142h108l53 264h195z" />
<glyph unicode="u" d="M540 0l13 122l-2 1q-53 -70 -117 -106.5t-140 -36.5q-124 0 -178 110t-7 344l124 626h194l-125 -628q-36 -178 -17.5 -238t87.5 -60q60 0 109 34t89 99l159 793h194l-212 -1060h-171z" />
<glyph unicode="v" horiz-adv-x="814" d="M378 318l1 -75l3 -1l27 76l271 742h201l-454 -1060h-172l-116 1060h202z" />
<glyph unicode="w" horiz-adv-x="1176" d="M335 356l-3 -31l2 -1l11 31l300 705h138l19 -704l-3 -50l3 -1l16 55l254 700h186l-429 -1060h-160l-16 685l1 69l-3 1l-26 -70l-288 -685h-161l-5 1060h184z" />
<glyph unicode="x" horiz-adv-x="814" d="M441 670h3l203 390h221l-334 -523l174 -537h-221l-83 403h-3l-210 -403h-220l345 537l-169 523h220z" />
<glyph unicode="y" horiz-adv-x="814" d="M374 366v-54h3l325 748h212l-579 -1225q-52 -107 -126 -185t-185 -78q-23 0 -47.5 5.5t-51.5 11.5l51 147q10 -2 26 -4t24 -2q49 0 82 38t78 129l52 106l-83 1057h212z" />
<glyph unicode="z" horiz-adv-x="789" d="M230 151h434l-30 -151h-639l26 125l569 781h-408l31 154h617l-24 -123z" />
<glyph unicode="{" horiz-adv-x="547" d="M339 -371q-140 54 -182 169.5t-14 284.5l33 208q18 116 -6 174.5t-97 58.5l17 114l5 29q70 0 115.5 60.5t62.5 171.5l34 210q27 177 105 288.5t238 167.5l20 -112q-77 -36 -119 -122.5t-63 -221.5l-33 -210q-19 -111 -66.5 -188t-129.5 -118q66 -44 90 -122t9 -180 l-34 -208q-23 -138 -8.5 -221.5t82.5 -120.5z" />
<glyph unicode="|" horiz-adv-x="423" d="M167 -265h-132l271 1692h131z" />
<glyph unicode="}" horiz-adv-x="547" d="M-72 -259q77 37 119 122.5t65 219.5l33 208q18 113 67 190t135 116q-71 41 -97 118.5t-8 183.5l33 210q23 139 8.5 223.5t-80.5 120.5l56 112q140 -55 182 -170t15 -286l-34 -210q-18 -117 6.5 -174.5t97.5 -57.5l-6 -36l-16 -107q-71 0 -116.5 -61.5t-62.5 -171.5 l-33 -208q-28 -175 -106 -287.5t-238 -166.5z" />
<glyph unicode="~" horiz-adv-x="1046" d="M993 730q-24 -146 -104.5 -241t-181.5 -95q-64 0 -113 33t-100 106q-32 50 -59.5 73t-63.5 23q-42 0 -81 -54.5t-53 -137.5l-130 20q22 147 100 238.5t183 91.5q62 0 113.5 -35t101.5 -103q31 -53 57.5 -74.5t62.5 -21.5q41 0 81 56.5t53 140.5z" />
<glyph unicode="&#xa1;" horiz-adv-x="449" d="M161 -367h-195l190 951h195zM404 852h-193l41 208h193z" />
<glyph unicode="&#xa2;" horiz-adv-x="900" d="M415 130q63 0 119.5 57.5t68.5 155.5h181q-18 -140 -114 -237.5t-219 -119.5l-45 -226h-156l47 234q-125 37 -176 161t-23 301l24 146q31 201 130 326.5t261 147.5l44 216h155l-46 -228q103 -35 150.5 -133.5t22.5 -244.5h-181q20 110 -11.5 175.5t-103.5 65.5 q-96 0 -150 -90.5t-76 -234.5l-24 -146q-24 -154 -1.5 -240t123.5 -86z" />
<glyph unicode="&#xa3;" horiz-adv-x="938" d="M430 606l-23 -139q-20 -98 -56 -177t-88 -139h553l-31 -151h-742l31 151h6q38 13 73.5 109.5t58.5 203.5l23 142h-117l29 151h114l44 258q44 220 150.5 326t259.5 106q150 0 220 -105.5t36 -281.5h-195q26 132 -1 183.5t-90 51.5q-58 0 -108.5 -73t-76.5 -207l-44 -258 h282l-29 -151h-279z" />
<glyph unicode="&#xa4;" horiz-adv-x="1157" d="M806 100q-73 -60 -151.5 -90t-160.5 -30q-76 0 -139.5 32.5t-112.5 95.5l-131 -133l-89 115l148 150q-30 78 -35 166.5t16 189.5q21 112 62.5 205t101.5 171l-87 149l136 118l79 -137q70 52 144.5 79.5t152.5 27.5q72 0 134 -30.5t112 -88.5l147 150l87 -119l-159 -162 q30 -79 35.5 -169.5t-13.5 -193.5q-22 -108 -60.5 -197.5t-93.5 -165.5l84 -143l-133 -116zM296 596q-43 -211 23 -338.5t205 -127.5q127 0 251.5 136t163.5 330q41 209 -25 335.5t-204 126.5q-128 0 -252.5 -135t-161.5 -327z" />
<glyph unicode="&#xa5;" horiz-adv-x="970" d="M564 823l352 604h216l-450 -716h213l-24 -119h-259l-33 -167h259l-24 -117h-258l-62 -308h-195l62 308h-263l24 117h262l33 167h-262l23 119h224l-165 716h216z" />
<glyph unicode="&#xa6;" horiz-adv-x="418" d="M-20 -265l154 769h182l-154 -769h-182zM352 684h-181l147 743h182z" />
<glyph unicode="&#xa7;" horiz-adv-x="989" d="M897 435q-21 -99 -71 -164t-128 -103q51 -51 66.5 -117.5t-4.5 -166.5q-37 -183 -153.5 -270.5t-298.5 -87.5q-165 0 -264 99.5t-55 319.5l194 2q-31 -155 15.5 -212t139.5 -57q83 0 146.5 57t81.5 147q19 95 -17.5 140t-167.5 104q-173 64 -240 151t-32 258 q18 97 67.5 163t129.5 105q-50 50 -65.5 117t5.5 167q35 177 153 268.5t300 91.5q171 0 255 -110t44 -311h-193q24 126 -10 197.5t-127 71.5q-89 0 -149.5 -58t-78.5 -148q-21 -103 12.5 -147t169.5 -102q176 -66 242 -150.5t33 -254.5zM519 683q-24 8 -46.5 17.5 t-48.5 21.5q-46 -23 -76 -69t-42 -108q-22 -107 10.5 -152t166.5 -107q36 -15 54 -22t36 -15q48 22 82 68.5t47 107.5q19 98 -17 146.5t-166 111.5z" />
<glyph unicode="&#xa8;" horiz-adv-x="863" d="M848 1246h-193l29 181h193zM466 1246h-192l30 181h191z" />
<glyph unicode="&#xa9;" horiz-adv-x="1290" d="M917 584q-25 -161 -104.5 -234.5t-206.5 -73.5q-124 0 -182.5 103.5t-30.5 276.5l19 116q28 180 116 280t218 100q121 0 179.5 -78t34.5 -230h-122q17 106 -10.5 150t-100.5 44q-71 0 -123.5 -73t-71.5 -192l-18 -117q-21 -128 7 -197.5t103 -69.5q70 0 112 45.5 t59 149.5h122zM226 714q-45 -281 58 -455.5t302 -174.5q187 0 352.5 181.5t209.5 448.5q44 279 -60 452.5t-301 173.5q-189 0 -354 -180t-207 -446zM131 714q52 328 242.5 530t430.5 202q225 0 356.5 -210.5t82.5 -521.5q-53 -328 -244.5 -531.5t-429.5 -203.5 q-227 0 -358 211.5t-80 523.5z" />
<glyph unicode="&#xaa;" horiz-adv-x="717" d="M524 692q-2 21 -1.5 44.5t3.5 46.5l-2 1q-34 -47 -80 -76.5t-104 -29.5q-84 0 -123.5 60.5t-17.5 163.5q22 114 95 167.5t200 53.5h97l12 55q14 75 1 110.5t-55 35.5q-46 0 -80 -30.5t-45 -87.5l-130 13q21 108 95.5 168t183.5 60q97 0 144.5 -69.5t21.5 -200.5l-62 -308 q-12 -56 -15.5 -95.5t-1.5 -81.5h-136zM399 798q33 0 79 31.5t69 70.5l24 122h-98q-52 0 -91 -34t-48 -82q-12 -56 4 -82t61 -26z" />
<glyph unicode="&#xab;" horiz-adv-x="784" d="M257 506l106 -385h-131l-138 377v6l1 7l1 6l290 376h131zM534 506l106 -385h-131l-138 377v6l1 7l1 6l290 376h131z" />
<glyph unicode="&#xac;" horiz-adv-x="882" d="M782 636h-1l-52 -266h-154l52 266h-471l27 140h626z" />
<glyph unicode="&#xad;" horiz-adv-x="555" d="M500 541h-400l30 151h400z" />
<glyph unicode="&#xae;" horiz-adv-x="1290" d="M130 714q52 328 243 530t431 202q225 0 357 -210.5t83 -521.5q-53 -328 -244.5 -531.5t-430.5 -203.5q-227 0 -358.5 211.5t-80.5 523.5zM226 714q-45 -281 58 -455.5t302 -174.5q187 0 352 181.5t209 448.5q44 279 -59.5 452.5t-300.5 173.5q-189 0 -354 -180t-207 -446 zM564 647l-54 -337h-119l133 833h221q115 0 174.5 -64t39.5 -186q-10 -66 -43 -110t-91 -74q49 -28 65 -80t4 -124l-9 -55q-7 -43 -9 -73.5t3 -51.5l-2 -15h-121q-4 21 0 62t11 79l8 53q13 79 -6.5 111t-80.5 32h-124zM581 760h111q55 0 96.5 34t51.5 96q13 80 -11.5 110 t-102.5 30h-102z" />
<glyph unicode="&#xaf;" horiz-adv-x="812" d="M833 1298h-570l20 129h571z" />
<glyph unicode="&#xb0;" horiz-adv-x="645" d="M270 1192q23 112 97 183.5t162 71.5q81 0 128.5 -75.5t26.5 -179.5q-23 -115 -95.5 -183.5t-160.5 -68.5q-81 0 -130 73t-28 179zM381 1192q-13 -63 8 -99.5t63 -36.5q38 0 74.5 38.5t47.5 97.5q13 63 -6.5 100.5t-61.5 37.5q-39 0 -76.5 -40t-48.5 -98z" />
<glyph unicode="&#xb1;" horiz-adv-x="894" d="M609 856h267l-24 -154h-268l-65 -406h-173l65 406h-277l25 154h276l65 398h173zM682 21h-626l30 151h626z" />
<glyph unicode="&#xb2;" horiz-adv-x="684" d="M612 654h-458l23 118l282 262q59 60 81 97t30 82q11 56 -0.5 86t-52.5 30t-71.5 -35t-40.5 -89h-150q21 112 98 178t190 66q102 0 150.5 -61.5t25.5 -175.5q-17 -84 -63 -138.5t-161 -155.5l-133 -146h273z" />
<glyph unicode="&#xb3;" horiz-adv-x="684" d="M376 1107h91q45 0 73.5 29.5t39.5 83.5q10 51 -5.5 79.5t-61.5 28.5q-38 0 -66.5 -27t-36.5 -71h-149q20 108 94.5 163t178.5 55q107 0 163.5 -58t34.5 -165q-13 -60 -48 -104.5t-89 -67.5q49 -25 69 -70.5t7 -112.5q-23 -117 -99 -172.5t-195 -55.5q-101 0 -161.5 58.5 t-37.5 172.5h150q-11 -55 7.5 -84t64.5 -29q44 0 77.5 30.5t43.5 83.5q14 68 -5 95.5t-71 27.5h-91l15 77z" />
<glyph unicode="&#xb4;" horiz-adv-x="578" d="M422 1448h222l-261 -260h-152z" />
<glyph unicode="&#xb5;" horiz-adv-x="949" d="M447 1060l-123 -613q-40 -199 -18 -257.5t97 -58.5q60 0 106.5 35.5t83.5 104.5l158 789h194l-212 -1060h-178l9 67l-2 1q-42 -44 -89 -66.5t-102 -22.5q-43 0 -74 14.5t-54 46.5l-89 -448h-194l293 1468h194z" />
<glyph unicode="&#xb6;" horiz-adv-x="820" d="M408 0l102 510h-61q-166 0 -242 127t-35 331q44 220 161.5 339.5t298.5 119.5h255l-285 -1427h-194z" />
<glyph unicode="&#xb7;" horiz-adv-x="474" d="M363 594h-191l42 210h191z" />
<glyph unicode="&#xb8;" horiz-adv-x="432" d="M179 2l-19 -57q46 -10 69.5 -49t7.5 -119q-20 -104 -93 -157t-198 -53l17 111q41 0 73 24.5t42 74.5q10 52 -9 69.5t-81 24.5l49 131h142z" />
<glyph unicode="&#xb9;" horiz-adv-x="461" d="M384 652h-150l131 652l-95 -3l25 124l248 22z" />
<glyph unicode="&#xba;" horiz-adv-x="735" d="M245 1119q31 158 116.5 243t208.5 85q114 0 169.5 -91.5t26.5 -236.5l-22 -115q-32 -157 -117.5 -242t-208.5 -85q-114 0 -169.5 90.5t-26.5 236.5zM357 1004q-21 -99 0 -152.5t86 -53.5q57 0 102 57t64 149l22 115q20 97 -0.5 151t-84.5 54q-59 0 -104 -58t-63 -147z " />
<glyph unicode="&#xbb;" horiz-adv-x="784" d="M316 927l138 -378l-2 -6h1l-3 -13l-289 -378h-132l260 387l-105 388h132zM603 927l138 -378l-2 -6h1l-3 -13l-289 -378h-132l260 387l-105 388h132z" />
<glyph unicode="&#xbc;" horiz-adv-x="1186" d="M420 651h-150l130 653l-94 -3l25 123l248 23zM271 119l-87 61l757 1116l85 -62zM1011 271h81l-24 -119h-81l-30 -152h-150l30 152h-308l10 93l424 540h150zM699 271h162l62 313l-3 1l-12 -17z" />
<glyph unicode="&#xbd;" horiz-adv-x="1256" d="M274 119l-87 61l757 1116l85 -62zM414 651h-150l130 653l-94 -3l25 123l248 23zM1051 0h-457l23 119l281 261q60 60 81.5 97t30.5 83q11 55 -1 85t-52 30q-41 0 -72 -34.5t-41 -88.5h-150q22 111 99 177.5t190 66.5q102 0 150.5 -62t25.5 -175q-18 -85 -64 -139 t-160 -155l-134 -146h274z" />
<glyph unicode="&#xbe;" horiz-adv-x="1340" d="M421 119l-87 61l757 1116l85 -62zM1150 271h81l-24 -119h-81l-30 -152h-150l30 152h-308l10 93l424 540h150zM838 271h162l62 313l-3 1l-12 -17zM377 1109h91q44 0 73 29.5t40 82.5q10 51 -6 79.5t-62 28.5q-37 0 -65.5 -27t-37.5 -71h-149q21 108 95.5 163.5t178.5 55.5 q107 0 163 -58.5t35 -165.5q-13 -59 -48.5 -104t-88.5 -68q49 -25 69 -70.5t7 -111.5q-24 -118 -99.5 -173.5t-194.5 -55.5q-101 0 -161.5 58.5t-37.5 172.5h150q-12 -54 6.5 -83t65.5 -29q44 0 77 30.5t44 82.5q14 68 -5 95.5t-71 27.5h-92l16 77z" />
<glyph unicode="&#xbf;" horiz-adv-x="806" d="M590 660q-29 -134 -64 -188.5t-140 -147.5q-80 -90 -125 -159t-64 -165q-25 -118 0.5 -173t100.5 -55q54 0 109 54.5t76 153.5h194q-38 -176 -149.5 -271t-260.5 -95q-154 0 -227 102.5t-38 280.5q26 136 94.5 228.5t186.5 205.5q53 50 73 94.5t39 134.5h195zM472 1060 h196l-38 -195h-196z" />
<glyph unicode="&#xc0;" horiz-adv-x="1042" d="M710 367h-396l-166 -367h-197l681 1427h187l105 -1427h-196zM382 518h321l-33 634h-3zM838 1530h-158l-170 260h222z" />
<glyph unicode="&#xc1;" horiz-adv-x="1042" d="M710 367h-396l-166 -367h-197l681 1427h187l105 -1427h-196zM382 518h321l-33 634h-3zM839 1787h222l-261 -260h-152z" />
<glyph unicode="&#xc2;" horiz-adv-x="1042" d="M710 367h-396l-166 -367h-197l681 1427h187l105 -1427h-196zM382 518h321l-33 634h-3zM1015 1589l-5 -22h-148l-82 152l-141 -152h-147l5 23l247 227h112z" />
<glyph unicode="&#xc3;" horiz-adv-x="1042" d="M710 367h-396l-166 -367h-197l681 1427h187l105 -1427h-196zM382 518h321l-33 634h-3zM1061 1801q-15 -96 -67.5 -154.5t-124.5 -58.5q-51 0 -106 48t-94 48q-28 0 -53 -32.5t-32 -81.5l-100 27q15 95 68 155.5t124 60.5q40 0 100.5 -48.5t99.5 -48.5q28 0 53.5 33.5 t33.5 82.5z" />
<glyph unicode="&#xc4;" horiz-adv-x="1042" d="M710 367h-396l-166 -367h-197l681 1427h187l105 -1427h-196zM382 518h321l-33 634h-3zM1040 1585h-193l29 181h193zM658 1585h-192l30 181h191z" />
<glyph unicode="&#xc5;" horiz-adv-x="1042" d="M710 367h-396l-166 -367h-197l681 1427h187l105 -1427h-196zM382 518h321l-33 634h-3zM611 1700q17 82 73 131t129 49q65 0 103 -52t23 -128q-17 -85 -71.5 -131.5t-126.5 -46.5q-66 0 -106 49.5t-24 128.5zM698 1700q-9 -44 8.5 -69t51.5 -25q31 0 58.5 26t36.5 68 q9 46 -6.5 71.5t-50.5 25.5q-31 0 -60.5 -28t-37.5 -69z" />
<glyph unicode="&#xc6;" horiz-adv-x="1477" d="M1342 0h-677l59 354h-354l-214 -354h-231l903 1427h754l-31 -154h-479l-76 -458h401l-30 -152h-397l-86 -511h488zM753 520l106 635l-2 1l-386 -636h282z" />
<glyph unicode="&#xc7;" horiz-adv-x="989" d="M947 450q-62 -232 -176 -351.5t-305 -119.5q-186 0 -289 174t-49 438l51 255q58 293 190.5 447t326.5 154q186 0 283.5 -130.5t70.5 -358.5h-193q18 164 -24.5 250.5t-156.5 86.5q-100 0 -180.5 -123t-121.5 -324l-51 -257q-44 -216 0 -338.5t160 -122.5q101 0 162 75.5 t109 244.5h193zM515 -4l-19 -57q46 -10 69.5 -49t7.5 -119q-20 -104 -93 -157t-198 -53l17 111q41 0 73 24.5t42 74.5q10 52 -9 69.5t-81 24.5l49 131h142z" />
<glyph unicode="&#xc8;" horiz-adv-x="921" d="M845 662h-470l-102 -511h546l-30 -151h-741l285 1427h736l-30 -153h-541l-92 -460h469zM794 1530h-158l-170 260h222z" />
<glyph unicode="&#xc9;" horiz-adv-x="921" d="M845 662h-470l-102 -511h546l-30 -151h-741l285 1427h736l-30 -153h-541l-92 -460h469zM795 1787h222l-261 -260h-152z" />
<glyph unicode="&#xca;" horiz-adv-x="921" d="M845 662h-470l-102 -511h546l-30 -151h-741l285 1427h736l-30 -153h-541l-92 -460h469zM971 1589l-5 -22h-148l-82 152l-141 -152h-147l5 23l247 227h112z" />
<glyph unicode="&#xcb;" horiz-adv-x="921" d="M845 662h-470l-102 -511h546l-30 -151h-741l285 1427h736l-30 -153h-541l-92 -460h469zM996 1585h-193l29 181h193zM614 1585h-192l30 181h191z" />
<glyph unicode="&#xcc;" horiz-adv-x="478" d="M253 0h-195l285 1427h195zM556 1530h-158l-170 260h222z" />
<glyph unicode="&#xcd;" horiz-adv-x="478" d="M253 0h-195l285 1427h195zM556 1787h222l-261 -260h-152z" />
<glyph unicode="&#xce;" horiz-adv-x="478" d="M253 0h-195l285 1427h195zM733 1589l-5 -22h-148l-82 152l-141 -152h-147l5 23l247 227h112z" />
<glyph unicode="&#xcf;" horiz-adv-x="478" d="M253 0h-195l285 1427h195zM758 1585h-193l29 181h193zM376 1585h-192l30 181h191z" />
<glyph unicode="&#xd0;" horiz-adv-x="1093" d="M77 0l132 657h-113l27 138h113l127 632h329q200 0 313 -176.5t60 -443.5l-41 -203q-60 -298 -202 -451t-356 -153h-389zM591 657h-187l-101 -506h188q121 0 208.5 121.5t129.5 331.5l41 205q42 215 -17 340t-198 125h-128l-96 -479h187z" />
<glyph unicode="&#xd1;" horiz-adv-x="1124" d="M907 0h-194l-259 1037h-3l-208 -1037h-195l285 1427h195l260 -1034h3l208 1034h194zM1100 1801q-15 -96 -67.5 -154.5t-124.5 -58.5q-51 0 -106 48t-94 48q-28 0 -53 -32.5t-32 -81.5l-100 27q15 95 68 155.5t124 60.5q40 0 100.5 -48.5t99.5 -48.5q28 0 53.5 33.5 t33.5 82.5z" />
<glyph unicode="&#xd2;" horiz-adv-x="1096" d="M1023 584q-59 -293 -202 -449t-351 -156q-191 0 -293.5 175.5t-50.5 440.5l50 247q58 292 197.5 448.5t341.5 156.5q194 0 301.5 -176.5t55.5 -440.5zM878 832q42 214 -12.5 336.5t-181.5 122.5q-109 0 -191 -121t-124 -326l-50 -249q-43 -217 7.5 -339t174.5 -122 q112 0 198.5 121.5t128.5 328.5zM873 1551h-158l-170 260h222z" />
<glyph unicode="&#xd3;" horiz-adv-x="1096" d="M1023 584q-59 -293 -202 -449t-351 -156q-191 0 -293.5 175.5t-50.5 440.5l50 247q58 292 197.5 448.5t341.5 156.5q194 0 301.5 -176.5t55.5 -440.5zM878 832q42 214 -12.5 336.5t-181.5 122.5q-109 0 -191 -121t-124 -326l-50 -249q-43 -217 7.5 -339t174.5 -122 q112 0 198.5 121.5t128.5 328.5zM874 1808h222l-261 -260h-152z" />
<glyph unicode="&#xd4;" horiz-adv-x="1096" d="M1023 584q-59 -293 -202 -449t-351 -156q-191 0 -293.5 175.5t-50.5 440.5l50 247q58 292 197.5 448.5t341.5 156.5q194 0 301.5 -176.5t55.5 -440.5zM878 832q42 214 -12.5 336.5t-181.5 122.5q-109 0 -191 -121t-124 -326l-50 -249q-43 -217 7.5 -339t174.5 -122 q112 0 198.5 121.5t128.5 328.5zM1049 1610l-5 -22h-148l-82 152l-141 -152h-147l5 23l247 227h112z" />
<glyph unicode="&#xd5;" horiz-adv-x="1096" d="M1023 584q-59 -293 -202 -449t-351 -156q-191 0 -293.5 175.5t-50.5 440.5l50 247q58 292 197.5 448.5t341.5 156.5q194 0 301.5 -176.5t55.5 -440.5zM878 832q42 214 -12.5 336.5t-181.5 122.5q-109 0 -191 -121t-124 -326l-50 -249q-43 -217 7.5 -339t174.5 -122 q112 0 198.5 121.5t128.5 328.5zM1095 1822q-15 -96 -67.5 -154.5t-124.5 -58.5q-51 0 -106 48t-94 48q-28 0 -53 -32.5t-32 -81.5l-100 27q15 95 68 155.5t124 60.5q40 0 100.5 -48.5t99.5 -48.5q28 0 53.5 33.5t33.5 82.5z" />
<glyph unicode="&#xd6;" horiz-adv-x="1096" d="M1023 584q-59 -293 -202 -449t-351 -156q-191 0 -293.5 175.5t-50.5 440.5l50 247q58 292 197.5 448.5t341.5 156.5q194 0 301.5 -176.5t55.5 -440.5zM878 832q42 214 -12.5 336.5t-181.5 122.5q-109 0 -191 -121t-124 -326l-50 -249q-43 -217 7.5 -339t174.5 -122 q112 0 198.5 121.5t128.5 328.5zM1074 1606h-193l29 181h193zM692 1606h-192l30 181h191z" />
<glyph unicode="&#xd7;" horiz-adv-x="888" d="M59 337l326 331l-193 331l142 116l182 -313l309 313l95 -116l-325 -332l193 -330l-141 -117l-183 314l-308 -314z" />
<glyph unicode="&#xd8;" horiz-adv-x="1084" d="M996 516q-55 -275 -196.5 -406t-350.5 -131q-63 0 -115 16.5t-95 50.5l-87 -134h-114l135 207q-48 72 -61 170.5t13 226.5l79 392q55 276 193.5 407.5t343.5 131.5q72 0 132 -22.5t107 -66.5l80 124h113l-133 -204q38 -72 47.5 -163.5t-13.5 -206.5zM319 516 q-12 -61 -17 -110t-1 -86l3 -1l571 880q-22 48 -63 70t-102 22q-110 0 -192 -96.5t-119 -283.5zM880 911q8 43 12.5 78t5.5 65h-3l-558 -858q23 -33 57.5 -47.5t84.5 -14.5q113 0 198.5 97t123.5 285z" />
<glyph unicode="&#xd9;" horiz-adv-x="1046" d="M1143 1427l-198 -989q-48 -241 -181.5 -350t-329.5 -109q-177 0 -271 118.5t-49 340.5l198 989h191l-198 -989q-34 -166 10 -237t150 -71q100 0 177 74.5t109 233.5l198 989h194zM841 1530h-158l-170 260h222z" />
<glyph unicode="&#xda;" horiz-adv-x="1046" d="M1143 1427l-198 -989q-48 -241 -181.5 -350t-329.5 -109q-177 0 -271 118.5t-49 340.5l198 989h191l-198 -989q-34 -166 10 -237t150 -71q100 0 177 74.5t109 233.5l198 989h194zM842 1787h222l-261 -260h-152z" />
<glyph unicode="&#xdb;" horiz-adv-x="1046" d="M1143 1427l-198 -989q-48 -241 -181.5 -350t-329.5 -109q-177 0 -271 118.5t-49 340.5l198 989h191l-198 -989q-34 -166 10 -237t150 -71q100 0 177 74.5t109 233.5l198 989h194zM1018 1589l-5 -22h-148l-82 152l-141 -152h-147l5 23l247 227h112z" />
<glyph unicode="&#xdc;" horiz-adv-x="1046" d="M1143 1427l-198 -989q-48 -241 -181.5 -350t-329.5 -109q-177 0 -271 118.5t-49 340.5l198 989h191l-198 -989q-34 -166 10 -237t150 -71q100 0 177 74.5t109 233.5l198 989h194zM1043 1585h-193l29 181h193zM661 1585h-192l30 181h191z" />
<glyph unicode="&#xdd;" horiz-adv-x="967" d="M552 763l3 -1l371 665h216l-546 -913l-103 -514h-191l106 530l-178 897h215zM805 1783h222l-261 -260h-152z" />
<glyph unicode="&#xde;" horiz-adv-x="953" d="M520 1427l-56 -284h176q174 0 258 -117.5t48 -302.5q-41 -204 -162 -312t-312 -108h-176l-61 -303h-195l285 1427h195zM433 992l-107 -537h177q92 0 158.5 78.5t89.5 187.5q23 121 -9 195.5t-132 74.5h-176z" />
<glyph unicode="&#xdf;" horiz-adv-x="980" d="M227 0h-194l214 1066q45 230 157.5 338t275.5 108q125 0 194.5 -84t37.5 -242q-24 -123 -87 -219.5t-75 -161.5q-18 -86 74 -219t65 -272q-36 -183 -130.5 -258.5t-252.5 -75.5q-57 0 -117 20t-83 49l68 151q25 -28 64.5 -49t88.5 -21q63 0 107 48t61 129 q18 95 -75.5 226t-64.5 270q19 98 86 196.5t82 174.5q18 91 -6.5 139t-72.5 48q-62 0 -119 -78t-85 -219z" />
<glyph unicode="&#xe0;" horiz-adv-x="867" d="M510 0q-2 39 -2 70t3 60l-2 1q-52 -66 -117 -108.5t-135 -42.5q-117 0 -172.5 84.5t-26.5 226.5q32 165 138.5 245t282.5 80h126l21 109q21 105 -3.5 155.5t-93.5 50.5q-58 0 -104 -48.5t-60 -122.5h-195q27 139 136.5 229.5t264.5 90.5q137 0 210.5 -92t39.5 -265 l-99 -492q-12 -63 -16 -117t0 -114h-196zM332 133q55 0 110.5 39t92.5 98l44 223h-127q-73 0 -128 -59t-71 -142q-17 -77 3 -118t76 -41zM684 1214h-158l-170 260h222z" />
<glyph unicode="&#xe1;" horiz-adv-x="867" d="M510 0q-2 39 -2 70t3 60l-2 1q-52 -66 -117 -108.5t-135 -42.5q-117 0 -172.5 84.5t-26.5 226.5q32 165 138.5 245t282.5 80h126l21 109q21 105 -3.5 155.5t-93.5 50.5q-58 0 -104 -48.5t-60 -122.5h-195q27 139 136.5 229.5t264.5 90.5q137 0 210.5 -92t39.5 -265 l-99 -492q-12 -63 -16 -117t0 -114h-196zM332 133q55 0 110.5 39t92.5 98l44 223h-127q-73 0 -128 -59t-71 -142q-17 -77 3 -118t76 -41zM685 1472h222l-261 -260h-152z" />
<glyph unicode="&#xe2;" horiz-adv-x="867" d="M510 0q-2 39 -2 70t3 60l-2 1q-52 -66 -117 -108.5t-135 -42.5q-117 0 -172.5 84.5t-26.5 226.5q32 165 138.5 245t282.5 80h126l21 109q21 105 -3.5 155.5t-93.5 50.5q-58 0 -104 -48.5t-60 -122.5h-195q27 139 136.5 229.5t264.5 90.5q137 0 210.5 -92t39.5 -265 l-99 -492q-12 -63 -16 -117t0 -114h-196zM332 133q55 0 110.5 39t92.5 98l44 223h-127q-73 0 -128 -59t-71 -142q-17 -77 3 -118t76 -41zM860 1273l-5 -22h-148l-82 152l-141 -152h-147l5 23l247 227h112z" />
<glyph unicode="&#xe3;" horiz-adv-x="867" d="M510 0q-2 39 -2 70t3 60l-2 1q-52 -66 -117 -108.5t-135 -42.5q-117 0 -172.5 84.5t-26.5 226.5q32 165 138.5 245t282.5 80h126l21 109q21 105 -3.5 155.5t-93.5 50.5q-58 0 -104 -48.5t-60 -122.5h-195q27 139 136.5 229.5t264.5 90.5q137 0 210.5 -92t39.5 -265 l-99 -492q-12 -63 -16 -117t0 -114h-196zM332 133q55 0 110.5 39t92.5 98l44 223h-127q-73 0 -128 -59t-71 -142q-17 -77 3 -118t76 -41zM906 1485q-15 -96 -67.5 -154.5t-124.5 -58.5q-51 0 -106 48t-94 48q-28 0 -53 -32.5t-32 -81.5l-100 27q15 95 68 155.5t124 60.5 q40 0 100.5 -48.5t99.5 -48.5q28 0 53.5 33.5t33.5 82.5z" />
<glyph unicode="&#xe4;" horiz-adv-x="867" d="M510 0q-2 39 -2 70t3 60l-2 1q-52 -66 -117 -108.5t-135 -42.5q-117 0 -172.5 84.5t-26.5 226.5q32 165 138.5 245t282.5 80h126l21 109q21 105 -3.5 155.5t-93.5 50.5q-58 0 -104 -48.5t-60 -122.5h-195q27 139 136.5 229.5t264.5 90.5q137 0 210.5 -92t39.5 -265 l-99 -492q-12 -63 -16 -117t0 -114h-196zM332 133q55 0 110.5 39t92.5 98l44 223h-127q-73 0 -128 -59t-71 -142q-17 -77 3 -118t76 -41zM885 1270h-193l29 181h193zM503 1270h-192l30 181h191z" />
<glyph unicode="&#xe5;" horiz-adv-x="867" d="M510 0q-2 39 -2 70t3 60l-2 1q-52 -66 -117 -108.5t-135 -42.5q-117 0 -172.5 84.5t-26.5 226.5q32 165 138.5 245t282.5 80h126l21 109q21 105 -3.5 155.5t-93.5 50.5q-58 0 -104 -48.5t-60 -122.5h-195q27 139 136.5 229.5t264.5 90.5q137 0 210.5 -92t39.5 -265 l-99 -492q-12 -63 -16 -117t0 -114h-196zM332 133q55 0 110.5 39t92.5 98l44 223h-127q-73 0 -128 -59t-71 -142q-17 -77 3 -118t76 -41zM457 1384q17 82 73 131t129 49q65 0 103 -52t23 -128q-17 -85 -71.5 -131.5t-126.5 -46.5q-66 0 -106 49.5t-24 128.5zM544 1384 q-9 -44 8.5 -69t51.5 -25q31 0 58.5 26t36.5 68q9 46 -6.5 71.5t-50.5 25.5q-31 0 -60.5 -28t-37.5 -69z" />
<glyph unicode="&#xe6;" horiz-adv-x="1328" d="M866 -21q-94 0 -160.5 44.5t-103.5 127.5q-61 -75 -149 -123.5t-201 -48.5q-130 0 -191 86t-32 233q34 168 138.5 247.5t286.5 79.5h147l15 77q23 115 2.5 170t-84.5 55q-63 0 -113 -53.5t-65 -131.5l-190 17q30 151 136 236t263 85q75 0 131.5 -30t89.5 -89 q60 59 128 89t146 30q153 0 220.5 -126t25.5 -343l-24 -122h-510q-35 -174 -3.5 -266.5t141.5 -92.5q70 0 127 26.5t119 74.5l32 -129q-53 -48 -136 -85.5t-186 -37.5zM318 124q46 0 106.5 38t101.5 88l48 241h-147q-74 0 -131 -57.5t-73 -139.5q-17 -85 5.5 -127.5 t89.5 -42.5zM1030 927q-73 0 -132 -82t-96 -219h315l6 30q26 131 5 201t-98 70z" />
<glyph unicode="&#xe7;" horiz-adv-x="841" d="M397 130q64 0 120 57.5t68 155.5h181q-20 -157 -136 -260t-254 -103q-176 0 -252.5 133.5t-43.5 342.5l24 146q34 219 148.5 348.5t299.5 129.5q147 0 224.5 -107.5t44.5 -286.5h-181q21 110 -10.5 175.5t-104.5 65.5q-96 0 -150 -90.5t-76 -234.5l-24 -146 q-24 -154 -1.5 -240t123.5 -86zM431 -4l-19 -57q46 -10 69.5 -49t7.5 -119q-20 -104 -93 -157t-198 -53l17 111q41 0 73 24.5t42 74.5q10 52 -9 69.5t-81 24.5l49 131h142z" />
<glyph unicode="&#xe8;" horiz-adv-x="845" d="M379 -20q-164 0 -246.5 130.5t-49.5 336.5l25 155q35 220 153 349t279 129q163 0 233.5 -122.5t36.5 -331.5l-21 -137h-505l-7 -42q-24 -147 8.5 -232t130.5 -85q86 0 146 27.5t105 74.5l35 -127q-54 -58 -136.5 -91.5t-186.5 -33.5zM515 927q-71 0 -127 -83t-81 -213 h312l7 40q19 120 -7 188t-104 68zM647 1215h-158l-170 260h222z" />
<glyph unicode="&#xe9;" horiz-adv-x="845" d="M379 -20q-164 0 -246.5 130.5t-49.5 336.5l25 155q35 220 153 349t279 129q163 0 233.5 -122.5t36.5 -331.5l-21 -137h-505l-7 -42q-24 -147 8.5 -232t130.5 -85q86 0 146 27.5t105 74.5l35 -127q-54 -58 -136.5 -91.5t-186.5 -33.5zM515 927q-71 0 -127 -83t-81 -213 h312l7 40q19 120 -7 188t-104 68zM648 1472h222l-261 -260h-152z" />
<glyph unicode="&#xea;" horiz-adv-x="845" d="M379 -20q-164 0 -246.5 130.5t-49.5 336.5l25 155q35 220 153 349t279 129q163 0 233.5 -122.5t36.5 -331.5l-21 -137h-505l-7 -42q-24 -147 8.5 -232t130.5 -85q86 0 146 27.5t105 74.5l35 -127q-54 -58 -136.5 -91.5t-186.5 -33.5zM515 927q-71 0 -127 -83t-81 -213 h312l7 40q19 120 -7 188t-104 68zM824 1274l-5 -22h-148l-82 152l-141 -152h-147l5 23l247 227h112z" />
<glyph unicode="&#xeb;" horiz-adv-x="845" d="M379 -20q-164 0 -246.5 130.5t-49.5 336.5l25 155q35 220 153 349t279 129q163 0 233.5 -122.5t36.5 -331.5l-21 -137h-505l-7 -42q-24 -147 8.5 -232t130.5 -85q86 0 146 27.5t105 74.5l35 -127q-54 -58 -136.5 -91.5t-186.5 -33.5zM515 927q-71 0 -127 -83t-81 -213 h312l7 40q19 120 -7 188t-104 68zM849 1270h-193l29 181h193zM467 1270h-192l30 181h191z" />
<glyph unicode="&#xec;" horiz-adv-x="443" d="M232 0h-194l212 1060h194zM472 1194h-158l-170 260h222z" />
<glyph unicode="&#xed;" horiz-adv-x="443" d="M232 0h-194l212 1060h194zM472 1451h222l-261 -260h-152z" />
<glyph unicode="&#xee;" horiz-adv-x="443" d="M232 0h-194l212 1060h194zM648 1253l-5 -22h-148l-82 152l-141 -152h-147l5 23l247 227h112z" />
<glyph unicode="&#xef;" horiz-adv-x="443" d="M232 0h-194l212 1060h194zM674 1249h-193l29 181h193zM292 1249h-192l30 181h191z" />
<glyph unicode="&#xf0;" horiz-adv-x="940" d="M835 1266q65 -119 80 -278.5t-25 -363.5l-17 -85q-54 -268 -193.5 -414t-316.5 -146q-165 0 -252 136t-46 338q48 244 173 370t299 126q57 0 104.5 -27.5t80.5 -74.5l3 1q5 101 -7.5 177.5t-43.5 137.5l-221 -143l-41 92l206 134q-26 26 -54 47t-59 40l91 154 q54 -24 99.5 -58t83.5 -80l195 126l41 -92zM697 626q4 22 5 29t3 16q-15 57 -59.5 93.5t-119.5 36.5q-86 0 -162 -99.5t-105 -248.5q-28 -140 7 -231t130 -91q86 0 166.5 115t116.5 293z" />
<glyph unicode="&#xf1;" d="M397 931l3 -1q53 73 119 111.5t143 38.5q120 0 173.5 -101.5t10.5 -316.5l-133 -662h-195l133 661q31 158 8 211t-101 53q-47 0 -94 -36.5t-88 -99.5l-157 -789h-195l211 1060h179zM927 1485q-15 -96 -67.5 -154.5t-124.5 -58.5q-51 0 -106 48t-94 48q-28 0 -53 -32.5 t-32 -81.5l-100 27q15 95 68 155.5t124 60.5q40 0 100.5 -48.5t99.5 -48.5q28 0 53.5 33.5t33.5 82.5z" />
<glyph unicode="&#xf2;" d="M104 597q35 223 152.5 353t298.5 130q171 0 251 -135.5t46 -347.5l-22 -135q-36 -226 -152.5 -354t-296.5 -128q-172 0 -252.5 133.5t-46.5 348.5zM276 462q-24 -155 4.5 -243.5t124.5 -88.5q88 0 147.5 93t83.5 239l22 135q24 152 -5 241t-123 89q-90 0 -150 -92.5 t-82 -237.5zM670 1214h-158l-170 260h222z" />
<glyph unicode="&#xf3;" d="M104 597q35 223 152.5 353t298.5 130q171 0 251 -135.5t46 -347.5l-22 -135q-36 -226 -152.5 -354t-296.5 -128q-172 0 -252.5 133.5t-46.5 348.5zM276 462q-24 -155 4.5 -243.5t124.5 -88.5q88 0 147.5 93t83.5 239l22 135q24 152 -5 241t-123 89q-90 0 -150 -92.5 t-82 -237.5zM671 1472h222l-261 -260h-152z" />
<glyph unicode="&#xf4;" d="M104 597q35 223 152.5 353t298.5 130q171 0 251 -135.5t46 -347.5l-22 -135q-36 -226 -152.5 -354t-296.5 -128q-172 0 -252.5 133.5t-46.5 348.5zM276 462q-24 -155 4.5 -243.5t124.5 -88.5q88 0 147.5 93t83.5 239l22 135q24 152 -5 241t-123 89q-90 0 -150 -92.5 t-82 -237.5zM846 1273l-5 -22h-148l-82 152l-141 -152h-147l5 23l247 227h112z" />
<glyph unicode="&#xf5;" d="M104 597q35 223 152.5 353t298.5 130q171 0 251 -135.5t46 -347.5l-22 -135q-36 -226 -152.5 -354t-296.5 -128q-172 0 -252.5 133.5t-46.5 348.5zM276 462q-24 -155 4.5 -243.5t124.5 -88.5q88 0 147.5 93t83.5 239l22 135q24 152 -5 241t-123 89q-90 0 -150 -92.5 t-82 -237.5zM893 1485q-15 -96 -67.5 -154.5t-124.5 -58.5q-51 0 -106 48t-94 48q-28 0 -53 -32.5t-32 -81.5l-100 27q15 95 68 155.5t124 60.5q40 0 100.5 -48.5t99.5 -48.5q28 0 53.5 33.5t33.5 82.5z" />
<glyph unicode="&#xf6;" d="M104 597q35 223 152.5 353t298.5 130q171 0 251 -135.5t46 -347.5l-22 -135q-36 -226 -152.5 -354t-296.5 -128q-172 0 -252.5 133.5t-46.5 348.5zM276 462q-24 -155 4.5 -243.5t124.5 -88.5q88 0 147.5 93t83.5 239l22 135q24 152 -5 241t-123 89q-90 0 -150 -92.5 t-82 -237.5zM872 1270h-193l29 181h193zM490 1270h-192l30 181h191z" />
<glyph unicode="&#xf7;" horiz-adv-x="909" d="M862 596h-759l33 167h760zM655 975h-193l38 191h193zM497 184h-193l38 191h193z" />
<glyph unicode="&#xf8;" horiz-adv-x="904" d="M104 597q35 223 152.5 353t298.5 130q47 0 86.5 -11.5t73.5 -32.5l89 153h113l-128 -224q48 -67 64 -160.5t-1 -207.5l-22 -135q-36 -226 -152.5 -354t-296.5 -128q-41 0 -75.5 8.5t-65.5 24.5l-85 -149h-113l121 209q-60 65 -80.5 164.5t-0.5 224.5zM276 462 q-9 -62 -11 -110.5t5 -85.5h2l355 617q-17 22 -41 33t-56 11q-90 0 -150 -92.5t-82 -237.5zM658 597q6 45 8.5 83t0.5 70h-3l-341 -593q16 -14 35.5 -20.5t46.5 -6.5q88 0 147.5 93t83.5 239z" />
<glyph unicode="&#xf9;" d="M540 0l13 122l-2 1q-53 -70 -117 -106.5t-140 -36.5q-124 0 -178 110t-7 344l124 626h194l-125 -628q-36 -178 -17.5 -238t87.5 -60q60 0 109 34t89 99l159 793h194l-212 -1060h-171zM700 1194h-158l-170 260h222z" />
<glyph unicode="&#xfa;" d="M540 0l13 122l-2 1q-53 -70 -117 -106.5t-140 -36.5q-124 0 -178 110t-7 344l124 626h194l-125 -628q-36 -178 -17.5 -238t87.5 -60q60 0 109 34t89 99l159 793h194l-212 -1060h-171zM701 1451h222l-261 -260h-152z" />
<glyph unicode="&#xfb;" d="M540 0l13 122l-2 1q-53 -70 -117 -106.5t-140 -36.5q-124 0 -178 110t-7 344l124 626h194l-125 -628q-36 -178 -17.5 -238t87.5 -60q60 0 109 34t89 99l159 793h194l-212 -1060h-171zM877 1253l-5 -22h-148l-82 152l-141 -152h-147l5 23l247 227h112z" />
<glyph unicode="&#xfc;" d="M540 0l13 122l-2 1q-53 -70 -117 -106.5t-140 -36.5q-124 0 -178 110t-7 344l124 626h194l-125 -628q-36 -178 -17.5 -238t87.5 -60q60 0 109 34t89 99l159 793h194l-212 -1060h-171zM902 1249h-193l29 181h193zM520 1249h-192l30 181h191z" />
<glyph unicode="&#xfd;" horiz-adv-x="814" d="M374 366v-54h3l325 748h212l-579 -1225q-52 -107 -126 -185t-185 -78q-23 0 -47.5 5.5t-51.5 11.5l51 147q10 -2 26 -4t24 -2q49 0 82 38t78 129l52 106l-83 1057h212zM656 1451h222l-261 -260h-152z" />
<glyph unicode="&#xfe;" horiz-adv-x="914" d="M843 477q-51 -256 -148 -377t-252 -121q-67 0 -117.5 27.5t-83.5 82.5l-18 -89l-81 -408h-194l293 1468h1l94 469h193l-109 -543l3 -1q43 46 95 70.5t112 24.5q144 0 205.5 -164t11.5 -418zM654 498q39 196 15.5 311.5t-116.5 115.5q-49 0 -92 -37.5t-80 -103.5l-43 -214 l-66 -332q15 -53 49 -80.5t92 -27.5q85 0 143.5 91t92.5 256z" />
<glyph unicode="&#xff;" horiz-adv-x="814" d="M374 366v-54h3l325 748h212l-579 -1225q-52 -107 -126 -185t-185 -78q-23 0 -47.5 5.5t-51.5 11.5l51 147q10 -2 26 -4t24 -2q49 0 82 38t78 129l52 106l-83 1057h212zM857 1249h-193l29 181h193zM475 1249h-192l30 181h191z" />
<glyph unicode="&#x131;" horiz-adv-x="443" d="M232 0h-194l212 1060h194z" />
<glyph unicode="&#x152;" horiz-adv-x="1515" d="M1346 0h-682q-72 -10 -119.5 -15.5t-98.5 -5.5q-188 0 -282 162.5t-42 422.5l59 298q56 283 204 434t352 151q48 0 102.5 -5.5t110.5 -14.5h676l-31 -153h-541l-92 -460h470l-31 -152h-469l-102 -511h546zM476 131q37 0 76.5 3t80.5 10l227 1138q-37 6 -75 10t-78 4 q-110 0 -200.5 -113t-131.5 -319l-59 -300q-46 -223 -3 -328t163 -105z" />
<glyph unicode="&#x153;" horiz-adv-x="1416" d="M109 542q51 257 175 397.5t305 140.5q85 0 146 -42t97 -121q65 81 141.5 122t162.5 41q158 0 224.5 -127t24.5 -341l-25 -123h-505q-33 -171 -3 -265t130 -94q71 0 129 26t117 76l35 -123q-57 -58 -139 -94t-185 -36q-86 0 -149 41.5t-100 119.5q-65 -80 -144.5 -120.5 t-175.5 -40.5q-166 0 -240.5 150t-26.5 386zM297 515q-37 -183 -14.5 -284t118.5 -101q87 0 155 108.5t102 276.5l5 27q36 181 14 283t-118 102q-88 0 -156 -109.5t-100 -275.5zM1105 927q-63 0 -121.5 -82t-96.5 -214h309l4 28q26 128 5 198t-100 70z" />
<glyph unicode="&#x178;" horiz-adv-x="967" d="M552 763l3 -1l371 665h216l-546 -913l-103 -514h-191l106 530l-178 897h215zM1006 1581h-193l29 181h193zM624 1581h-192l30 181h191z" />
<glyph unicode="&#x2c6;" horiz-adv-x="790" d="M815 1249l-5 -22h-148l-82 152l-141 -152h-147l5 23l247 227h112z" />
<glyph unicode="&#x2da;" horiz-adv-x="573" d="M292 1285q17 82 73 131t129 49q65 0 103 -52t23 -128q-17 -85 -71.5 -131.5t-126.5 -46.5q-66 0 -106 49.5t-24 128.5zM379 1285q-9 -44 8.5 -69t51.5 -25q31 0 58.5 26t36.5 68q9 46 -6.5 71.5t-50.5 25.5q-31 0 -60.5 -28t-37.5 -69z" />
<glyph unicode="&#x2dc;" horiz-adv-x="775" d="M822 1454q-15 -96 -67.5 -154.5t-124.5 -58.5q-51 0 -106 48t-94 48q-28 0 -53 -32.5t-32 -81.5l-100 27q15 95 68 155.5t124 60.5q40 0 100.5 -48.5t99.5 -48.5q28 0 53.5 33.5t33.5 82.5z" />
<glyph unicode="&#x2000;" horiz-adv-x="940" />
<glyph unicode="&#x2001;" horiz-adv-x="1880" />
<glyph unicode="&#x2002;" horiz-adv-x="940" />
<glyph unicode="&#x2003;" horiz-adv-x="1880" />
<glyph unicode="&#x2004;" horiz-adv-x="626" />
<glyph unicode="&#x2005;" horiz-adv-x="470" />
<glyph unicode="&#x2006;" horiz-adv-x="313" />
<glyph unicode="&#x2007;" horiz-adv-x="313" />
<glyph unicode="&#x2008;" horiz-adv-x="235" />
<glyph unicode="&#x2009;" horiz-adv-x="376" />
<glyph unicode="&#x200a;" horiz-adv-x="104" />
<glyph unicode="&#x2010;" horiz-adv-x="555" d="M500 541h-400l30 151h400z" />
<glyph unicode="&#x2011;" horiz-adv-x="555" d="M500 541h-400l30 151h400z" />
<glyph unicode="&#x2012;" horiz-adv-x="555" d="M500 541h-400l30 151h400z" />
<glyph unicode="&#x2013;" horiz-adv-x="1093" d="M1015.89 636h-815.093l40.2998 152h813.792z" />
<glyph unicode="&#x2014;" horiz-adv-x="1280" d="M1198.78 636h-1003.18l49.5996 152h1001.58z" />
<glyph unicode="&#x2018;" horiz-adv-x="377" d="M245 1195q20 102 75.5 194.5t134.5 161.5l87 -65q-47 -69 -76.5 -136.5t-46.5 -152.5l-35 -179h-174z" />
<glyph unicode="&#x2019;" horiz-adv-x="373" d="M481 1349q-20 -102 -76.5 -195.5t-134.5 -160.5l-87 65q47 68 77 136t47 154l36 181h174z" />
<glyph unicode="&#x201a;" horiz-adv-x="391" d="M227 76q-20 -100 -76.5 -193t-133.5 -160l-88 63q48 71 77.5 138.5t46.5 150.5l37 185h175z" />
<glyph unicode="&#x201c;" horiz-adv-x="639" d="M247 1195q20 102 75.5 194.5t134.5 161.5l87 -65q-47 -69 -76.5 -136.5t-46.5 -152.5l-35 -179h-174zM503 1195q20 102 75.5 194.5t134.5 161.5l87 -65q-47 -69 -76.5 -136.5t-46.5 -152.5l-35 -179h-174z" />
<glyph unicode="&#x201d;" horiz-adv-x="645" d="M492 1349q-20 -102 -76.5 -195.5t-134.5 -160.5l-87 65q47 68 77 136t47 154l36 181h174zM746 1349q-20 -102 -76.5 -195.5t-134.5 -160.5l-87 65q47 68 77 136t47 154l36 181h174z" />
<glyph unicode="&#x201e;" horiz-adv-x="631" d="M227 76q-20 -100 -76.5 -193t-133.5 -160l-88 63q48 71 77.5 138.5t46.5 150.5l37 185h175zM477 76q-20 -100 -76.5 -192.5t-134.5 -160.5l-89 63q48 71 78 138.5t47 150.5l37 185h175z" />
<glyph unicode="&#x2022;" horiz-adv-x="597" d="M195 777q18 92 74 143.5t139 51.5q77 0 116.5 -55t23.5 -140l-15 -70q-19 -95 -74.5 -144.5t-140.5 -49.5q-77 0 -116 53.5t-22 140.5z" />
<glyph unicode="&#x2026;" horiz-adv-x="1132" d="M240 0h-193l39 196h193zM588 0h-193l39 196h193zM923 0h-193l39 196h193z" />
<glyph unicode="&#x202f;" horiz-adv-x="376" />
<glyph unicode="&#x2039;" horiz-adv-x="504" d="M285 540l106 -385h-131l-138 377v6l1 7l1 6l290 376h131z" />
<glyph unicode="&#x203a;" horiz-adv-x="495" d="M312 927l138 -378l-2 -6h1l-3 -13l-289 -378h-132l260 387l-105 388h132z" />
<glyph unicode="&#x2044;" horiz-adv-x="724" d="M85 111l-87 61l757 1116l85 -62z" />
<glyph unicode="&#x205f;" horiz-adv-x="470" />
<glyph unicode="&#x20ac;" horiz-adv-x="862" d="M727 501h-336l-2 -9q-36 -181 -0.5 -271.5t135.5 -90.5q40 0 84.5 8.5t86.5 25.5l-15 -154q-47 -15 -93 -23t-93 -8q-172 0 -259 139t-40 374l2 9h-108l24 116h107l34 170h-107l23 117h107l5 22q51 259 183.5 390t319.5 131q42 0 86 -7.5t90 -22.5l-47 -157 q-38 16 -77 25.5t-82 9.5q-91 0 -167.5 -98.5t-111.5 -268.5l-5 -24h337l-23 -117h-337l-34 -170h337z" />
<glyph unicode="&#x2122;" horiz-adv-x="999" d="M775 1039l3 -1l180 389h103l-105 -528h-88l61 302l-3 1l-154 -303h-48l-34 319h-3l-64 -319h-87l106 528h107zM570 1344h-101l-88 -444h-93l88 444h-100l17 83h294z" />
<glyph unicode="&#x2212;" horiz-adv-x="895" d="M803 636h-627l31 152h626z" />
<glyph unicode="&#xe000;" horiz-adv-x="1058" d="M0 1058h1058v-1058h-1058v1058z" />
<glyph unicode="&#xfb02;" horiz-adv-x="1013" d="M89 0l183 918h-121l28 142h122l27 137q38 183 126.5 267.5t229.5 84.5q25 0 52 -5t58 -15l-48 -146q-14 5 -31.5 8t-39.5 3q-54 0 -93.5 -51t-58.5 -146l-27 -137h161l-29 -142h-161l-183 -918h-195zM807 0h-193l306 1529h193z" />
<glyph unicode="&#xfb03;" horiz-adv-x="1513" d="M89 0l183 918h-121l28 142h122l27 137q38 183 126.5 267.5t229.5 84.5q25 0 52 -5t58 -15l-48 -146q-14 5 -31.5 8t-39.5 3q-54 0 -93.5 -51t-58.5 -146l-27 -137h161l-29 -142h-161l-183 -918h-195zM649 0l183 918h-123l29 142h122l23 109q39 198 142 289t268 91 q54 0 107.5 -15t114.5 -43l-60 -155q-39 21 -82.5 34.5t-98.5 13.5q-77 0 -127 -54t-70 -161l-23 -109h157l-28 -142h-157l-183 -918h-194zM1308 0h-194l212 1060h194z" />
<glyph unicode="&#xfb04;" horiz-adv-x="1589" d="M89 0l183 918h-121l28 142h122l27 137q38 183 126.5 267.5t229.5 84.5q25 0 52 -5t58 -15l-48 -146q-14 5 -31.5 8t-39.5 3q-54 0 -93.5 -51t-58.5 -146l-27 -137h161l-29 -142h-161l-183 -918h-195zM665 0l183 918h-121l28 142h122l27 137q38 183 126.5 267.5 t229.5 84.5q25 0 52 -5t58 -15l-48 -146q-14 5 -31.5 8t-39.5 3q-54 0 -93.5 -51t-58.5 -146l-27 -137h161l-29 -142h-161l-183 -918h-195zM1383 0h-193l306 1529h193z" />
<glyph horiz-adv-x="713" d="M510 271h81l-24 -119h-81l-30 -152h-150l30 152h-308l10 93l424 540h150zM198 271h162l62 313l-3 1l-12 -17z" />
<glyph horiz-adv-x="457" d="M242 0h-150l130 653l-94 -3l25 123l248 23z" />
<glyph horiz-adv-x="673" d="M479 0h-457l23 119l281 261q60 60 81.5 97t30.5 83q11 55 -1 85t-52 30q-41 0 -72 -34.5t-41 -88.5h-150q22 111 99 177.5t190 66.5q102 0 150.5 -62t25.5 -175q-18 -85 -64 -139t-160 -155l-134 -146h274z" />
<glyph horiz-adv-x="686" d="M245 455h91q44 0 73 29.5t40 82.5q10 51 -6 79.5t-62 28.5q-37 0 -65.5 -27t-37.5 -71h-149q21 108 95.5 163.5t178.5 55.5q107 0 163 -58.5t35 -165.5q-13 -59 -48.5 -104t-88.5 -68q49 -25 69 -70.5t7 -111.5q-24 -118 -99.5 -173.5t-194.5 -55.5q-101 0 -161.5 58.5 t-37.5 172.5h150q-12 -54 6.5 -83t65.5 -29q44 0 77 30.5t44 82.5q14 68 -5 95.5t-71 27.5h-92l16 77z" />
</font>
</defs>
</svg>
