<?xml version="1.0" standalone="no"?>
<!DOCTYPE svg PUBLIC "-//W3C//DTD SVG 1.1//EN" "http://www.w3.org/Graphics/SVG/1.1/DTD/svg11.dtd" >
<svg xmlns="http://www.w3.org/2000/svg">
<metadata></metadata>
<defs>
<font id="roboto_slablight" horiz-adv-x="1455" >
<font-face units-per-em="2048" ascent="1638" descent="-410" />
<missing-glyph horiz-adv-x="488" />
<glyph unicode="&#xfb01;" horiz-adv-x="1184" d="M74 86l159 13v865h-175v96h175v136q0 169 93.5 261t259.5 92q65 0 132.5 -14.5t137.5 -42.5l-19 -101q-59 24 -116 38t-128 14q-120 0 -181 -64t-61 -183v-136h608v-961l160 -13v-86h-436v86l160 13v865h-492v-865l160 -13v-86h-437v86z" />
<glyph unicode="&#xfb02;" horiz-adv-x="1297" d="M913 1400q-61 20 -127 31.5t-143 11.5q-152 0 -222 -70t-70 -206v-107h273v-96h-273v-865l160 -13v-86h-437v86l159 13v865h-155v96h155v107q0 182 107 282t296 100q84 0 173 -17t178 -50h43v-1383l160 -13v-86h-436v86l159 13v1301v0z" />
<glyph horiz-adv-x="2048" />
<glyph horiz-adv-x="2048" />
<glyph unicode="&#xd;" horiz-adv-x="488" />
<glyph horiz-adv-x="0" />
<glyph unicode="&#x9;" horiz-adv-x="0" />
<glyph unicode=" "  horiz-adv-x="488" />
<glyph unicode="&#x09;" horiz-adv-x="488" />
<glyph unicode="&#xa0;" horiz-adv-x="488" />
<glyph unicode="!" horiz-adv-x="448" d="M268 468h-117v959h117v-959zM279 0h-139v164h139v-164z" />
<glyph unicode="&#x22;" horiz-adv-x="696" d="M265 1317l-33 -256h-69l2 250v218h100v-212zM500 1317l-33 -256h-70l3 253v215h100v-212z" />
<glyph unicode="#" horiz-adv-x="1221" d="M716 402h-307l-76 -402h-97l76 402h-250v91h266l82 432h-274v94h291l78 408h97l-78 -408h309l77 408h97l-77 -408h225v-94h-243l-81 -432h251v-91h-269l-75 -402h-97zM425 493h309l81 432h-308z" />
<glyph unicode="$" horiz-adv-x="1075" d="M845 352q0 109 -70.5 177.5t-249.5 131.5q-204 64 -302 155t-98 257q0 159 98 259t267 114v197h100v-197q171 -16 266 -129t93 -305l-3 -5h-110q0 149 -79 242.5t-219 93.5q-145 0 -220 -76t-75 -192q0 -112 66.5 -180t255.5 -131q202 -67 299.5 -157t97.5 -253 t-101 -260.5t-274 -111.5v-186h-100v185q-177 12 -294 114t-113 309l3 6h109q0 -174 99.5 -250.5t239.5 -76.5q144 0 229 76t85 193z" />
<glyph unicode="%" horiz-adv-x="1428" d="M75 1152q0 125 77 210t203 85q125 0 202 -85t77 -210v-75q0 -123 -77 -208t-200 -85q-127 0 -204.5 85t-77.5 208v75zM171 1077q0 -86 48 -147t138 -61q87 0 134.5 61t47.5 147v75q0 87 -48 148.5t-136 61.5t-136 -61.5t-48 -148.5v-75zM794 350q0 123 77 208.5t201 85.5 q126 0 203 -85.5t77 -208.5v-77q0 -124 -77 -209t-201 -85q-126 0 -203 85t-77 209v77zM888 273q0 -86 48 -147t138 -61q87 0 135 60.5t48 147.5v77q0 89 -48 149t-137 60q-88 0 -136 -60.5t-48 -148.5v-77zM431 119l-72 47l696 1115l73 -47z" />
<glyph unicode="&#x26;" horiz-adv-x="1243" d="M363 778q-80 99 -117.5 180t-37.5 166q0 155 86.5 239t238.5 84q141 0 224 -79t83 -200q0 -89 -44 -152t-128 -127l-154 -120l402 -470q48 69 74.5 155.5t26.5 183.5h109q0 -125 -36 -230t-103 -190l181 -213l-2 -5h-135l-120 138q-83 -76 -182 -117.5t-214 -41.5 q-204 0 -323 105t-119 280q0 117 71 211.5t205 192.5zM515 78q91 0 176.5 35.5t154.5 101.5l-406 472l-8.5 8.5t-5.5 7.5l-46 -36q-112 -92 -151.5 -166.5t-39.5 -136.5q0 -122 84 -204t242 -82zM325 1126q0 -65 31 -135.5t94 -146.5l173 129q58 44 82 92t24 103 q0 78 -52 129t-144 51q-100 0 -154 -64t-54 -158z" />
<glyph unicode="'" horiz-adv-x="429" d="M270 1338l-38 -270h-69l8 261v200h99v-191z" />
<glyph unicode="(" horiz-adv-x="623" d="M112 576q0 356 135.5 638t303.5 378h6l25 -72q-142 -101 -248 -358.5t-106 -582.5v-19q0 -325 106 -582.5t248 -362.5l-25 -69h-6q-170 98 -304.5 374.5t-134.5 641.5v14z" />
<glyph unicode=")" horiz-adv-x="616" d="M481 562q0 -365 -135.5 -641.5t-304.5 -374.5l-6 1l-24 68q141 100 247.5 359.5t106.5 585.5v19q0 323 -108.5 584t-245.5 361l24 68h6q167 -96 303.5 -378t136.5 -638v-14z" />
<glyph unicode="*" horiz-adv-x="932" d="M390 980l-325 106l31 99l325 -121l-4 363h102l-7 -366l317 125l32 -99l-326 -113l219 -288l-85 -62l-208 299l-200 -297l-84 60z" />
<glyph unicode="+" horiz-adv-x="1122" d="M614 725h436v-110h-436v-472h-117v472h-425v110h425v457h117v-457z" />
<glyph unicode="," horiz-adv-x="384" d="M266 47q0 -90 -37 -176.5t-101 -145.5l-69 51q46 64 68 128t22 141v139h117v-137z" />
<glyph unicode="-" horiz-adv-x="777" d="M619 559h-468v99h468v-99z" />
<glyph unicode="." horiz-adv-x="456" d="M276 0h-134v161h134v-161z" />
<glyph unicode="/" horiz-adv-x="782" d="M106 -122h-106l596 1549h106z" />
<glyph unicode="0" horiz-adv-x="1134" d="M1005 554q0 -277 -117 -426t-325 -149t-326 149.5t-118 425.5v318q0 276 117 425.5t325 149.5t326 -149.5t118 -425.5v-318zM888 892q0 219 -84 337.5t-243 118.5t-242.5 -119t-83.5 -337v-356q0 -218 85 -338t243 -120t241.5 120t83.5 338v356z" />
<glyph unicode="1" horiz-adv-x="814" d="M112 86l256 13v1203l-282 -40v83l399 86v-1332l256 -13v-86h-629v86z" />
<glyph unicode="2" horiz-adv-x="1093" d="M99 0v90l467 530q131 147 184.5 245t53.5 189q0 132 -75.5 213t-212.5 81q-162 0 -246.5 -90.5t-84.5 -241.5h-109l-2 6q-4 178 116 301.5t326 123.5q185 0 295 -105.5t110 -284.5q0 -117 -74 -238t-205 -270l-394 -445l2 -5h622l10 201h104v-300h-887z" />
<glyph unicode="3" horiz-adv-x="1079" d="M367 777h135q156 0 236 78t80 200q0 134 -75.5 213.5t-223.5 79.5q-138 0 -225.5 -81t-87.5 -213h-110l-2 5q-5 167 117 277.5t308 110.5q191 0 304 -104.5t113 -290.5q0 -101 -63 -190t-176 -132q133 -38 199 -128.5t66 -214.5q0 -190 -123 -299t-316 -109 q-187 0 -320.5 106.5t-128.5 295.5l1 6h109q0 -136 94.5 -222.5t244.5 -86.5q152 0 237.5 79t85.5 226q0 150 -89.5 222t-254.5 72h-135v100z" />
<glyph unicode="4" horiz-adv-x="1154" d="M847 460h223v-99h-223v-262l159 -13v-86h-436v86l160 13v262h-668v66l656 1000h129v-967zM201 460h529v813l-6 2l-50 -107z" />
<glyph unicode="5" horiz-adv-x="1048" d="M810 1195l-11 123h-510l-53 -509q54 49 118.5 75.5t175.5 29.5q182 3 294 -122.5t112 -336.5q0 -217 -109 -346.5t-326 -129.5q-177 0 -294 98.5t-112 291.5l2 6h105q0 -144 81.5 -220.5t217.5 -76.5q160 0 238.5 96t78.5 279q0 159 -78.5 256t-221.5 97q-137 0 -209 -44 t-104 -132l-95 16l78 781h718v-232h-96z" />
<glyph unicode="6" horiz-adv-x="1101" d="M603 1447q73 0 144.5 -16.5t127.5 -47.5l-28 -94q-56 30 -112 44.5t-132 14.5q-166 0 -267 -130.5t-101 -396.5v-48q59 77 150 123t202 46q192 0 304 -132.5t112 -344.5q0 -211 -120.5 -348.5t-312.5 -137.5q-199 0 -325 149.5t-126 422.5v259q0 312 135.5 474.5 t348.5 162.5zM564 846q-119 0 -207.5 -62t-121.5 -159v-83q0 -223 93 -343.5t242 -120.5q143 0 229 112.5t86 274.5q0 171 -83.5 276t-237.5 105z" />
<glyph unicode="7" horiz-adv-x="1092" d="M1010 1327q-231 -273 -354 -556.5t-164 -650.5l-10 -120h-117l9 120q42 363 171 656.5t344 550.5h-703l-8 -201h-104v301h936v-100z" />
<glyph unicode="8" horiz-adv-x="1104" d="M967 1059q0 -115 -67 -202t-180 -126q130 -40 208.5 -134t78.5 -219q0 -192 -128 -295.5t-329 -103.5q-206 0 -333 103t-127 296q0 127 77.5 220.5t207.5 133.5q-112 39 -178.5 125.5t-66.5 201.5q0 185 116.5 286.5t301.5 101.5q183 0 301 -102t118 -286zM891 377 q0 136 -98.5 220.5t-244.5 84.5q-149 0 -245 -84.5t-96 -220.5q0 -140 95 -219.5t248 -79.5q148 0 244.5 80t96.5 219zM851 1060q0 124 -87.5 206t-215.5 82q-132 0 -216.5 -78.5t-84.5 -209.5q0 -126 84.5 -202t218.5 -76q130 0 215.5 76t85.5 202z" />
<glyph unicode="9" horiz-adv-x="1115" d="M495 78q167 0 261 127.5t94 393.5v41q-53 -89 -140.5 -137.5t-194.5 -48.5q-195 0 -314 134.5t-119 350.5t124.5 362t309.5 146q209 0 332 -136t123 -411v-299q0 -313 -129 -467.5t-347 -154.5q-76 0 -153 15t-147 45l22 98q66 -31 131.5 -45t146.5 -14zM515 553 q128 0 213 65t122 161v129q0 222 -88 331t-241 109q-138 0 -227.5 -120t-89.5 -289q0 -166 83.5 -276t227.5 -110z" />
<glyph unicode=":" horiz-adv-x="381" d="M262 0h-134v161h134v-161zM262 898h-134v161h134v-161z" />
<glyph unicode=";" horiz-adv-x="383" d="M266 900h-134v161h134v-161zM271 47q0 -90 -37 -176.5t-101 -145.5l-69 51q46 64 68 128t22 141v139h117v-137z" />
<glyph unicode="&#x3c;" horiz-adv-x="1001" d="M283 566l-106 -27v-6l106 -27l602 -263v-123l-811 371v95l811 370v-123z" />
<glyph unicode="=" horiz-adv-x="1104" d="M961 816h-817v104h817v-104zM961 414h-817v103h817v-103z" />
<glyph unicode="&#x3e;" horiz-adv-x="1034" d="M122 827v121l828 -371v-95l-828 -371v121l619 269l106 26v6l-106 29z" />
<glyph unicode="?" horiz-adv-x="906" d="M354 396q1 128 21.5 178.5t111.5 134.5q105 107 154 182t49 189q0 125 -66.5 194t-190.5 69q-115 0 -186 -67.5t-72 -181.5h-108l-2 6q-3 161 101 254t267 93q176 0 275.5 -98.5t99.5 -267.5q0 -132 -65.5 -234.5t-184.5 -214.5q-61 -52 -74.5 -97t-13.5 -139h-116z M486 0h-135v151h135v-151z" />
<glyph unicode="@" horiz-adv-x="1772" d="M1681 503q-10 -212 -115 -368t-307 -156q-76 0 -128 50t-68 139q-52 -94 -128 -141.5t-176 -47.5q-129 0 -195.5 117.5t-48.5 311.5q23 249 138.5 399t280.5 150q91 0 147.5 -26t123.5 -79l-2 -2h3l-49 -563q-9 -129 30 -176t93 -47q139 0 220 122t91 317 q18 381 -146.5 592t-519.5 211q-317 0 -522.5 -230.5t-222.5 -607.5q-18 -371 160.5 -600t509.5 -229q86 0 174 21.5t149 56.5l30 -74q-62 -40 -163 -63.5t-194 -23.5q-373 0 -576.5 244.5t-185.5 667.5q18 416 248 670t597 254q383 0 575.5 -237t176.5 -652zM623 408 q-15 -152 26 -242.5t135 -90.5q84 0 152.5 42.5t120.5 153.5v8.5t1 7.5l46 532q-31 23 -69.5 36t-84.5 13q-132 0 -218 -116.5t-109 -343.5z" />
<glyph unicode="A" d="M54 86l105 8l506 1333h111l502 -1333l107 -8v-86h-352v86l124 10l-117 320h-641l-119 -320l125 -10v-86h-351v86zM438 520h564l-278 755h-6z" />
<glyph unicode="B" horiz-adv-x="1295" d="M646 1427q222 0 346 -93.5t124 -281.5q0 -110 -62 -191.5t-169 -112.5q130 -24 211.5 -123t81.5 -228q0 -191 -124 -294t-332 -103h-652v86l159 13v1228l-159 13v87h159h417zM346 688v-589h376q158 0 248 78t90 218q0 128 -81.5 210.5t-237.5 82.5h-395zM346 787h328 q155 0 240 68t85 200q0 136 -90.5 204t-262.5 68h-300v-540z" />
<glyph unicode="C" horiz-adv-x="1322" d="M1205 980h-91l-16 217q-57 67 -148.5 109t-210.5 42q-239 0 -380 -174t-141 -450v-20q0 -276 139.5 -451t366.5 -175q121 0 219.5 42.5t154.5 108.5l16 217h91v-251q-66 -92 -194 -154t-287 -62q-274 0 -448.5 203.5t-174.5 521.5v18q0 319 174 522t455 203 q159 0 284 -62t191 -154v-251z" />
<glyph unicode="D" horiz-adv-x="1372" d="M644 1427q262 0 432.5 -174.5t170.5 -447.5v-184q0 -274 -170.5 -447.5t-432.5 -173.5h-574v86l159 13v1228l-159 13v87h159h415zM346 1327v-1228h298q212 0 348.5 148t136.5 374v187q0 223 -137 371t-348 148h-298z" />
<glyph unicode="E" horiz-adv-x="1260" d="M931 691h-585v-592h674l9 214h104v-313h-1063v86l159 13v1228l-159 13v87h159h899v-314h-104l-9 214h-669v-536h585v-100z" />
<glyph unicode="F" horiz-adv-x="1232" d="M70 86l159 13v1228l-159 13v87h1070v-314h-104l-9 214h-681v-558h596v-101h-596v-569l160 -13v-86h-436v86z" />
<glyph unicode="G" horiz-adv-x="1391" d="M1214 157q-51 -63 -177.5 -120.5t-316.5 -57.5q-278 0 -452.5 201t-174.5 524v30q0 318 174.5 515.5t457.5 197.5q161 0 284.5 -53t200.5 -146v-248h-91l-20 208q-58 64 -150 102t-215 38q-243 0 -383 -171t-140 -441v-32q0 -279 137.5 -452.5t371.5 -173.5 q139 0 238 36.5t140 77.5v346l-275 5v95h391v-481z" />
<glyph unicode="H" horiz-adv-x="1506" d="M70 1340v87h436v-87l-160 -13v-570h811v570l-159 13v87h159h117h160v-87l-160 -13v-1228l160 -13v-86h-436v86l159 13v558h-811v-558l160 -13v-86h-436v86l159 13v1228z" />
<glyph unicode="I" horiz-adv-x="614" d="M89 1340v87h437v-87l-159 -13v-1228l159 -13v-86h-437v86l160 13v1228z" />
<glyph unicode="J" horiz-adv-x="1134" d="M1058 1427v-87l-159 -13v-922q0 -195 -116.5 -310.5t-300.5 -115.5q-201 0 -317.5 104t-111.5 304l2 6h110q0 -155 82 -235t235 -80q130 0 214.5 89t84.5 238v922l-160 13v87h278h159z" />
<glyph unicode="K" horiz-adv-x="1388" d="M70 86l159 13v1228l-159 13v87h436v-87l-160 -13v-557h195l480 562l-137 8v87h399v-87l-126 -12l-510 -603l551 -627l128 -12v-86h-407v86l135 8l-512 577h-196v-572l160 -13v-86h-436v86z" />
<glyph unicode="L" horiz-adv-x="1154" d="M70 0v86l159 13v1228l-159 13v87h159h118h160v-87l-160 -13v-1228h593l9 201h104v-300h-983z" />
<glyph unicode="M" horiz-adv-x="1823" d="M1488 1254l-6 2l-530 -1256h-82l-529 1250h-6l11 -620v-531l160 -13v-86h-436v86l159 13v1228l-159 13v87h159h154l524 -1256h6l527 1256h314v-87l-160 -13v-1228l160 -13v-86h-436v86l160 13v531z" />
<glyph unicode="N" horiz-adv-x="1505" d="M1440 1427v-87l-160 -13v-1327h-117l-810 1227l-6 -1v-1127l160 -13v-86h-437v86l159 13v1228l-159 13v87h159h118l810 -1225l6 1v1124l-159 13v87h276h160z" />
<glyph unicode="O" horiz-adv-x="1438" d="M1330 704q0 -322 -171.5 -523.5t-446.5 -201.5q-270 0 -439 202t-169 523v18q0 321 168.5 523t438.5 202q275 0 447 -202t172 -523v-18zM1212 724q0 278 -135 449.5t-366 171.5q-226 0 -358 -171.5t-132 -449.5v-20q0 -280 132.5 -451.5t358.5 -171.5q233 0 366.5 171 t133.5 452v20z" />
<glyph unicode="P" horiz-adv-x="1250" d="M671 1427q225 0 348 -114t123 -303q0 -190 -123 -303.5t-348 -113.5h-325v-494l160 -13v-86h-436v86l159 13v1228l-159 13v87h159h442zM346 693h325q177 0 265.5 89.5t88.5 225.5q0 138 -88 228.5t-266 90.5h-325v-634z" />
<glyph unicode="Q" horiz-adv-x="1433" d="M1330 704q0 -209 -76 -372t-211 -255l295 -210l-82 -75l-321 229q-52 -21 -108 -31.5t-115 -10.5q-270 0 -439 202t-169 523v18q0 321 168.5 523t438.5 202q275 0 447 -202t172 -523v-18zM1212 724q0 278 -135 449.5t-366 171.5q-226 0 -358 -171.5t-132 -449.5v-20 q0 -280 132.5 -451.5t358.5 -171.5q233 0 366.5 171t133.5 452v20z" />
<glyph unicode="R" horiz-adv-x="1346" d="M662 1426q230 0 353 -100t123 -289q0 -112 -66 -201t-185 -129q132 -34 190.5 -119.5t58.5 -216.5v-130q0 -75 23.5 -111.5t71.5 -39.5l48 -3v-87h-75q-103 0 -144.5 70.5t-41.5 172.5v126q0 130 -82.5 206t-230.5 79h-359v-555l160 -14v-85h-436v85l159 14v1227l-159 14 v86h592zM346 754h303q193 0 282 77t89 207q0 137 -89 212.5t-269 75.5h-316v-572z" />
<glyph unicode="S" horiz-adv-x="1195" d="M1077 1004h-96l-17 201q-53 67 -144 105t-213 38q-177 0 -275.5 -76.5t-98.5 -190.5q0 -108 89 -180t307 -127q230 -59 350.5 -159t120.5 -263q0 -171 -139.5 -272t-355.5 -101q-153 0 -284 54t-214 154v250h96l17 -209q64 -73 165 -111.5t220 -38.5q168 0 272.5 74.5 t104.5 197.5q0 116 -87 190t-304 131q-234 59 -354.5 153t-120.5 254q0 164 137 266.5t354 102.5q155 0 277 -53.5t193 -145.5v-244z" />
<glyph unicode="T" horiz-adv-x="1254" d="M1194 1427v-301h-104l-9 201h-396v-1228l160 -13v-86h-437v86l159 13v1228h-395l-8 -201h-105v301h1135z" />
<glyph unicode="U" horiz-adv-x="1457" d="M495 1427v-87l-160 -13v-867q0 -183 108 -282.5t281 -99.5q177 0 287.5 99t110.5 283v867l-160 13v87h436v-87l-159 -13v-867q0 -234 -142.5 -357.5t-372.5 -123.5q-225 0 -365 124t-140 357v867l-160 13v87h160h116h160z" />
<glyph unicode="V" horiz-adv-x="1425" d="M421 1340l-133 -11l394 -1088l28 -95h6l29 95l393 1088l-134 11v87h371v-87l-111 -9l-496 -1331h-110l-497 1331l-110 9v87h370v-87z" />
<glyph unicode="W" horiz-adv-x="1898" d="M415 1340l-145 -11l225 -925l43 -218h6l53 218l313 1023h111l313 -1023l52 -221l6 1l46 220l222 925l-145 11v87h372v-87l-106 -8l-333 -1332h-110l-333 1095l-37 150h-6l-35 -150l-335 -1095h-111l-332 1332l-107 8v87h373v-87z" />
<glyph unicode="X" horiz-adv-x="1369" d="M53 86l119 10l444 627l-429 607l-119 10v87h392v-87l-137 -6l361 -522l362 522l-135 6v87h391v-87l-119 -10l-428 -607l444 -627l120 -10v-86h-391v86l134 6l-376 542l-377 -542l135 -6v-86h-391v86z" />
<glyph unicode="Y" horiz-adv-x="1394" d="M446 1340l-137 -10l386 -696l388 696l-137 10v87h393v-87l-122 -10l-464 -809v-422l159 -13v-86h-437v86l160 13v429l-461 802l-120 10v87h392v-87z" />
<glyph unicode="Z" horiz-adv-x="1195" d="M90 0v90l840 1237h-702l-8 -201h-104v301h957v-85l-844 -1243h763l9 201h104v-300h-1015z" />
<glyph unicode="[" horiz-adv-x="537" d="M476 1531h-206v-1737h206v-100h-322v1937h322v-100z" />
<glyph unicode="\" horiz-adv-x="793" d="M35 1427h114l596 -1549h-114z" />
<glyph unicode="]" horiz-adv-x="515" d="M23 1631h323v-1937h-323v100h205v1737h-205v100z" />
<glyph unicode="^" horiz-adv-x="827" d="M182 714h-112l293 713h87l293 -713h-114l-193 475l-28 103h-6l-30 -103z" />
<glyph unicode="_" horiz-adv-x="1126" d="M980 -99h-863v99h863v-99z" />
<glyph unicode="`" horiz-adv-x="550" d="M433 1186h-115l-236 256l2 4h151z" />
<glyph unicode="a" horiz-adv-x="1107" d="M827 0q-12 54 -16.5 93t-4.5 79q-59 -83 -157 -138t-221 -55q-156 0 -241 80.5t-85 217.5q0 147 126.5 233.5t342.5 86.5h235v140q0 114 -73 178.5t-205 64.5q-88 0 -161 -24t-122 -65l-10 -142h-97l1 204q74 56 176 91.5t218 35.5q176 0 282.5 -89t106.5 -256v-521 q0 -33 1.5 -62.5t6.5 -58.5l106 -7v-86h-209zM441 83q127 0 224 59t141 152v213h-237q-159 0 -254.5 -66.5t-95.5 -167.5q0 -85 59 -137.5t163 -52.5z" />
<glyph unicode="b" horiz-adv-x="1110" d="M1006 501q0 -238 -107.5 -380t-296.5 -142q-117 0 -201 47t-136 134l-13 -160h-100v1429l-160 13v87h277v-635q52 89 134.5 137.5t196.5 48.5q191 0 298.5 -152.5t107.5 -406.5v-20zM888 521q0 203 -78.5 330t-231.5 127q-123 0 -198 -60.5t-111 -156.5v-479 q39 -92 117 -146.5t194 -54.5q153 0 230.5 114t77.5 306v20z" />
<glyph unicode="c" horiz-adv-x="1072" d="M548 78q116 0 205.5 67t89.5 185h104l2 -6q5 -147 -117 -246t-284 -99q-216 0 -334.5 148.5t-118.5 382.5v41q0 231 118.5 380t333.5 149q122 0 224 -46t166 -126l5 -231h-100l-19 188q-47 53 -117 84t-159 31q-171 0 -252.5 -122t-81.5 -307v-41q0 -189 81 -310.5 t254 -121.5z" />
<glyph unicode="d" horiz-adv-x="1191" d="M832 153q-53 -83 -136.5 -128.5t-195.5 -45.5q-190 0 -297.5 142.5t-107.5 379.5v20q0 254 107.5 406.5t299.5 152.5q110 0 191.5 -46.5t135.5 -132.5v528l-160 13v87h160h118v-1430l159 -13v-86h-264zM214 501q0 -192 77 -306t231 -114q113 0 189 51t118 140v502 q-39 90 -113 147t-192 57q-155 0 -232.5 -127t-77.5 -330v-20z" />
<glyph unicode="e" horiz-adv-x="1079" d="M563 -21q-200 0 -331.5 146.5t-131.5 373.5v54q0 227 131 377t316 150q195 0 306.5 -123.5t111.5 -329.5v-100h-748v-28q0 -179 95.5 -300t250.5 -121q108 0 185.5 30.5t132.5 87.5l50 -80q-60 -63 -151 -100t-217 -37zM547 980q-130 0 -218.5 -99.5t-103.5 -249.5l2 -5 h622v30q0 138 -81.5 231t-220.5 93z" />
<glyph unicode="f" horiz-adv-x="710" d="M78 964v96h176v155q0 160 80.5 247t224.5 87q31 0 64.5 -4.5t67.5 -13.5l-15 -97q-23 6 -47.5 9t-58.5 3q-96 0 -147.5 -60.5t-51.5 -170.5v-155h253v-96h-253v-865l160 -13v-86h-437v86l160 13v865h-176z" />
<glyph unicode="g" horiz-adv-x="1125" d="M100 521q0 254 108.5 406.5t300.5 152.5q112 0 195 -49.5t137 -139.5l14 169h99v-1046q0 -205 -111 -323.5t-309 -118.5q-76 0 -163 18.5t-151 50.5l31 99q64 -30 134 -46.5t147 -16.5q151 0 227.5 89t76.5 248v134q-54 -81 -136.5 -125t-192.5 -44q-191 0 -299 142.5 t-108 379.5v20zM218 501q0 -191 77.5 -305.5t232.5 -114.5q115 0 191 52t117 143v492q-39 93 -112.5 151.5t-193.5 58.5q-155 0 -233.5 -127.5t-78.5 -329.5v-20z" />
<glyph unicode="h" horiz-adv-x="1272" d="M61 1442v87h276v-650q53 95 141 148t206 53q168 0 257.5 -104t89.5 -322v-555l160 -13v-86h-437v86l159 13v557q0 172 -68 247t-187 75q-121 0 -202 -63t-119 -168v-648l160 -13v-86h-436v86l159 13v1330z" />
<glyph unicode="i" horiz-adv-x="625" d="M87 86l160 13v861l-160 13v87h277v-961l159 -13v-86h-436v86zM364 1364h-117v165h117v-165z" />
<glyph unicode="j" horiz-adv-x="550" d="M394 -87q0 -164 -78.5 -252.5t-218.5 -88.5q-30 0 -56 5t-54 13l13 99q15 -5 42 -9.5t48 -4.5q88 0 137 60t49 178v1047l-159 13v87h277v-1147zM388 1368h-118v161h118v-161z" />
<glyph unicode="k" horiz-adv-x="1170" d="M61 1442v87h276v-912h125l322 344l-2 5l-97 7v87h373v-87l-123 -12l-363 -385l413 -479l117 -11v-86h-372v86l112 7l-369 423h-136v-417l160 -13v-86h-436v86l159 13v1330z" />
<glyph unicode="l" horiz-adv-x="597" d="M72 1442v87h276v-1430l160 -13v-86h-436v86l159 13v1330z" />
<glyph unicode="m" horiz-adv-x="1919" d="M70 973v87h263l11 -175q51 93 136 144t203 51q122 0 203 -59.5t117 -180.5q48 112 136.5 176t215.5 64q170 0 262.5 -112.5t92.5 -349.5v-518l160 -14v-86h-438v86l160 14v520q0 196 -69.5 277t-192.5 81q-137 0 -211 -87t-92 -223q0 -7 0.5 -14t0.5 -18v-537l160 -13 v-86h-437v86l159 13v521q0 192 -70 275t-192 83q-126 0 -199 -63t-102 -170v-646l160 -13v-86h-437v86l159 13v861z" />
<glyph unicode="n" horiz-adv-x="1292" d="M74 86l159 13v861l-159 13v87h263l11 -185q51 98 137.5 151.5t205.5 53.5q172 0 262.5 -105.5t90.5 -328.5v-547l159 -13v-86h-437v86l160 13v546q0 182 -68 257.5t-194 75.5q-123 0 -201 -65t-112 -173v-641l160 -13v-86h-437v86z" />
<glyph unicode="o" horiz-adv-x="1128" d="M95 546q0 234 128.5 384t340.5 150t340.5 -150t128.5 -384v-32q0 -236 -128 -385.5t-340 -149.5q-213 0 -341.5 149.5t-128.5 385.5v32zM213 514q0 -185 93 -310.5t259 -125.5q164 0 257 125.5t93 310.5v32q0 181 -93.5 307.5t-257.5 126.5q-165 0 -258 -126.5 t-93 -307.5v-32z" />
<glyph unicode="p" horiz-adv-x="1173" d="M64 973v87h257l15 -164q54 88 138 136t196 48q191 0 299 -152.5t108 -406.5v-20q0 -238 -108 -380t-297 -142q-111 0 -195 43t-137 121v-451l160 -12v-88h-436v88l159 12v1268zM959 521q0 202 -80 329.5t-235 127.5q-119 0 -193 -56.5t-111 -146.5v-509q40 -88 116 -138 t190 -50q154 0 233.5 116t79.5 307v20z" />
<glyph unicode="q" horiz-adv-x="1121" d="M95 521q0 254 107.5 406.5t299.5 152.5q110 0 190.5 -45.5t134.5 -130.5l12 156h103v-1368l160 -12v-88h-438v88l160 12v447q-54 -77 -135 -118.5t-189 -41.5q-190 0 -297.5 142.5t-107.5 379.5v20zM214 501q0 -192 77 -307.5t231 -115.5q110 0 185 49.5t117 136.5v517 q-41 87 -114 143t-186 56q-155 0 -232.5 -128t-77.5 -331v-20z" />
<glyph unicode="r" horiz-adv-x="806" d="M349 1060l15 -176v-13q45 98 122.5 153.5t184.5 55.5q23 0 44 -3.5t35 -7.5l-16 -110l-87 6q-111 0 -182 -62t-101 -171v-633l159 -13v-86h-436v86l160 13v861l-160 13v87h160h102z" />
<glyph unicode="s" horiz-adv-x="1004" d="M864 733h-96l-13 150q-45 46 -112 71.5t-154 25.5q-128 0 -192.5 -55.5t-64.5 -129.5t55.5 -122t221.5 -84q189 -42 283 -115t94 -199q0 -132 -107.5 -214t-283.5 -82q-118 0 -214.5 33t-166.5 93v213h95l16 -150q47 -47 119 -68.5t151 -21.5q127 0 200.5 56t73.5 136 q0 74 -61 130t-221 91q-189 41 -280.5 109t-91.5 191q0 121 102.5 205t271.5 84q117 0 213.5 -36t156.5 -96z" />
<glyph unicode="t" horiz-adv-x="718" d="M365 1332v-272h233v-96h-233v-691q0 -103 37.5 -147t100.5 -44q28 0 55 2.5t62 8.5l18 -87q-29 -13 -71.5 -20t-84.5 -7q-112 0 -174 71t-62 223v691h-182v96h182v272h119z" />
<glyph unicode="u" horiz-adv-x="1207" d="M874 174q-50 -93 -136.5 -144t-204.5 -51q-167 0 -262 114t-95 353v514l-131 13v87h131h117v-616q0 -194 66 -278.5t188 -84.5q133 0 212 59t111 163v657l-151 13v87h151h118v-961l142 -13v-86h-245z" />
<glyph unicode="v" horiz-adv-x="1131" d="M403 973l-133 -10l265 -697l34 -125h6l37 125l261 697l-132 10v87h357v-87l-104 -9l-375 -964h-94l-375 964l-104 9v87h357v-87z" />
<glyph unicode="w" horiz-adv-x="1656" d="M411 973l-134 -11l172 -618l40 -189h6l50 189l226 716h100l227 -716l51 -194h5l45 194l166 618l-133 11v87h357v-87l-103 -8l-282 -965h-100l-236 725l-46 183h-6l-46 -183l-232 -725h-100l-280 965l-103 8v87h356v-87z" />
<glyph unicode="x" horiz-adv-x="1168" d="M72 86l118 11l335 443l-319 422l-120 11v87h360v-87l-110 -6l253 -340l254 341l-109 5v87h360v-87l-119 -11l-319 -422l334 -443l119 -11v-86h-358v86l108 5l-269 361l-269 -361l109 -5v-86h-358v86z" />
<glyph unicode="y" horiz-adv-x="1150" d="M1112 973l-108 -9l-428 -1134q-41 -107 -106.5 -182.5t-192.5 -75.5q-20 0 -49.5 4.5t-43.5 8.5l14 98q12 -1 38 -3.5t36 -2.5q78 0 123 53.5t79 140.5l55 142l-376 951l-108 9v87h365v-87l-127 -10l259 -676l37 -127h6l290 803l-129 10v87h366v-87z" />
<glyph unicode="z" horiz-adv-x="1058" d="M258 99h576l9 201h105v-300h-834v86l639 873h-524l-8 -199h-104v300h784v-87z" />
<glyph unicode="{" horiz-adv-x="683" d="M618 -396q-179 54 -254.5 170t-75.5 283v221q0 120 -55.5 187t-170.5 67v102q115 0 170.5 66t55.5 186v223q0 168 75.5 285t254.5 171l27 -77q-126 -41 -183 -139.5t-57 -239.5v-223q0 -108 -44.5 -187.5t-135.5 -115.5q91 -38 135.5 -118t44.5 -187v-221 q0 -140 58 -236.5t184 -138.5z" />
<glyph unicode="|" horiz-adv-x="417" d="M246 -265h-99v1692h99v-1692z" />
<glyph unicode="}" horiz-adv-x="682" d="M26 -318q125 42 183.5 139t58.5 236v221q0 110 46.5 189.5t143.5 114.5q-97 34 -143.5 113.5t-46.5 190.5v223q0 141 -57.5 239.5t-182.5 139.5l26 77q178 -54 254.5 -171t76.5 -285v-223q0 -120 55 -186t172 -66v-102q-117 0 -172 -67t-55 -187v-221q0 -167 -76 -283 t-255 -170z" />
<glyph unicode="~" horiz-adv-x="1348" d="M1209 725q0 -126 -79 -218t-197 -92q-86 0 -157 34.5t-158 112.5q-62 51 -116 77.5t-109 26.5q-77 0 -128.5 -59t-51.5 -157l-94 15q0 128 77 217t197 89q85 0 157.5 -36.5t159.5 -110.5q62 -56 114 -81t109 -25q74 0 127.5 63.5t53.5 158.5z" />
<glyph unicode="&#xa1;" horiz-adv-x="446" d="M267 -367h-117v959h117v-959zM278 880h-139v180h139v-180z" />
<glyph unicode="&#xa2;" horiz-adv-x="1066" d="M574 78q117 0 206 67t89 185h105l2 -6q4 -132 -97.5 -227.5t-245.5 -113.5v-223h-118v223q-189 21 -291 166t-102 361v41q0 214 102 358.5t291 166.5v216h118v-215q104 -12 189 -56t141 -113l5 -231h-100l-18 188q-47 53 -117.5 84t-159.5 31q-170 0 -252 -122t-82 -307 v-41q0 -189 81.5 -310.5t253.5 -121.5z" />
<glyph unicode="&#xa3;" horiz-adv-x="1140" d="M129 0v99h10q69 15 102.5 127t33.5 231l-6 172h-202v100h199l-11 290q0 200 104 314t278 114q182 0 274.5 -101t89.5 -272l-3 -6h-109q0 145 -67.5 212.5t-184.5 67.5q-123 0 -194.5 -86.5t-71.5 -242.5l11 -290h442v-100h-439l7 -172q0 -105 -25 -200t-70 -158h641 l10 201h104v-300h-923z" />
<glyph unicode="&#xa4;" horiz-adv-x="1431" d="M1094 130q-80 -72 -178.5 -111t-205.5 -39q-109 0 -207 39t-176 110l-152 -154l-83 84l156 158q-59 79 -90.5 175t-31.5 204q0 110 34 210t97 180l-165 167l83 86l163 -167q77 66 172 101.5t200 35.5q103 0 198.5 -36t173.5 -102l166 169l85 -87l-168 -171 q61 -80 94.5 -178.5t33.5 -207.5q0 -106 -31.5 -202.5t-88.5 -173.5l160 -161l-85 -85zM237 596q0 -211 138.5 -359t334.5 -148q194 0 332.5 148t138.5 359q0 209 -138.5 356.5t-332.5 147.5q-196 0 -334.5 -147.5t-138.5 -356.5z" />
<glyph unicode="&#xa5;" horiz-adv-x="1355" d="M1300 1340l-129 -10l-387 -639h364v-85h-412v-202h412v-85h-412v-220l160 -13v-86h-437v86l159 13v220h-406v85h406v202h-406v85h361l-387 639l-128 10v87h365v-87l-104 -9l360 -614l359 614l-104 9v87h366v-87z" />
<glyph unicode="&#xa6;" horiz-adv-x="451" d="M147 -265v756h117v-756h-117zM264 684h-117v743h117v-743z" />
<glyph unicode="&#xa7;" horiz-adv-x="1188" d="M1078 422q0 -96 -60 -165t-167 -101q92 -49 138 -118t46 -174q0 -163 -124.5 -256t-335.5 -93q-207 0 -349.5 100.5t-137.5 315.5l2 6l109 2q0 -169 110.5 -246.5t265.5 -77.5q160 0 251 69t91 178q0 104 -76 162.5t-286 118.5q-237 60 -352 146t-115 251 q0 96 57.5 165.5t161.5 102.5q-88 49 -131.5 118t-43.5 172q0 157 125.5 253t335.5 96q217 0 339 -109t119 -307l-2 -6h-110q0 138 -92 230.5t-254 92.5q-170 0 -257 -70t-87 -177q0 -112 72.5 -170t292.5 -120q243 -63 353.5 -145t110.5 -244zM565 714q-39 9 -73.5 19.5 t-65.5 22.5q-110 -14 -165.5 -72t-55.5 -142q0 -114 77.5 -171.5t316.5 -124.5q33 -10 63.5 -18.5t58.5 -17.5q113 12 176.5 69.5t63.5 139.5q0 105 -83.5 167t-312.5 128z" />
<glyph unicode="&#xa8;" horiz-adv-x="952" d="M779 1273h-169v154h169v-154zM319 1273h-170v154h170v-154z" />
<glyph unicode="&#xa9;" horiz-adv-x="1563" d="M1076 584l2 -6q4 -147 -77 -224.5t-226 -77.5q-148 0 -237 104.5t-89 275.5v116q0 169 89 274.5t237 105.5q145 0 226.5 -77.5t77.5 -223.5l-2 -6h-89q0 111 -54.5 164.5t-158.5 53.5q-108 0 -168 -81.5t-60 -208.5v-117q0 -130 60 -210.5t168 -80.5q105 0 158.5 52.5 t53.5 166.5h89zM173 714q0 -273 179 -461.5t434 -188.5q252 0 431 188.5t179 461.5q0 272 -178.5 459.5t-431.5 187.5q-255 0 -434 -187.5t-179 -459.5zM90 714q0 309 203 520.5t493 211.5q289 0 492 -211.5t203 -520.5t-203.5 -522t-491.5 -213q-290 0 -493 213t-203 522z " />
<glyph unicode="&#xaa;" horiz-adv-x="857" d="M608 692q-9 24 -14.5 51t-7.5 55q-36 -52 -96.5 -86t-141.5 -34q-117 0 -180.5 60t-63.5 164q0 102 77 159t224 57h179v60q0 83 -40.5 128.5t-118.5 45.5q-90 0 -139 -36.5t-49 -106.5l-98 9l-2 6q-5 96 76 159.5t212 63.5q122 0 194 -70t72 -200v-308q0 -49 6 -92 t19 -85h-108zM367 771q68 0 132.5 38t84.5 84v143h-178q-93 0 -144.5 -38t-51.5 -92q0 -65 38 -100t119 -35z" />
<glyph unicode="&#xab;" horiz-adv-x="900" d="M203 510l271 -380h-103l-289 371v19l289 371h103zM506 510l271 -380h-103l-289 371v19l289 371h103z" />
<glyph unicode="&#xac;" horiz-adv-x="1089" d="M913 378h-116v279h-678v103h794v-382z" />
<glyph unicode="&#xad;" horiz-adv-x="777" d="M619 559h-468v99h468v-99z" />
<glyph unicode="&#xae;" horiz-adv-x="1563" d="M90 714q0 309 203 520.5t493 211.5q289 0 492 -211.5t203 -520.5t-203.5 -522t-491.5 -213q-290 0 -493 213t-203 522zM173 714q0 -273 179 -461.5t434 -188.5q252 0 431 188.5t179 461.5q0 272 -178.5 459.5t-431.5 187.5q-255 0 -434 -187.5t-179 -459.5zM626 659v-349 h-96v833h253q144 0 221.5 -62t77.5 -181q0 -67 -36 -115t-102 -78q66 -25 95.5 -77t29.5 -125v-55q0 -39 4 -71.5t13 -53.5v-15h-100q-9 20 -11 60t-2 81v53q0 82 -37.5 118.5t-125.5 36.5h-184zM626 748h178q77 0 130 39.5t53 110.5q0 83 -45.5 119.5t-158.5 36.5h-157 v-306z" />
<glyph unicode="&#xaf;" horiz-adv-x="984" d="M808 1332h-657v95h657v-95z" />
<glyph unicode="&#xb0;" horiz-adv-x="732" d="M122 1202q0 100 70.5 172.5t169.5 72.5q96 0 166 -72.5t70 -172.5q0 -101 -69.5 -171.5t-166.5 -70.5q-100 0 -170 70.5t-70 171.5zM209 1202q0 -65 44 -108.5t109 -43.5q63 0 106 43t43 109q0 67 -43 111.5t-106 44.5q-65 0 -109 -45t-44 -111z" />
<glyph unicode="&#xb1;" horiz-adv-x="1060" d="M588 812h383v-99h-383v-430h-109v430h-405v99h405v430h109v-430zM997 47h-819v100h819v-100z" />
<glyph unicode="&#xb2;" horiz-adv-x="799" d="M669 654h-558v88l308 276q76 69 102.5 113t26.5 90q0 64 -38 101.5t-115 37.5q-85 0 -131 -41t-46 -106h-98l-2 6q-6 95 71 162.5t206 67.5q121 0 191 -59t70 -170q0 -73 -46 -133t-147 -155l-211 -184l3 -6h414v-88z" />
<glyph unicode="&#xb3;" horiz-adv-x="820" d="M390 1097q86 0 127.5 34t41.5 97q0 58 -44.5 94.5t-130.5 36.5q-73 0 -121 -34.5t-48 -91.5h-98l-2 6q-6 92 73.5 150.5t195.5 58.5q130 0 205.5 -57t75.5 -163q0 -58 -34.5 -103.5t-97.5 -70.5q72 -21 109 -68.5t37 -117.5q0 -107 -82 -166.5t-213 -59.5 q-117 0 -202 57.5t-80 164.5l2 6h99q0 -62 50 -101t131 -39q88 0 138 37.5t50 100.5q0 74 -45.5 107.5t-136.5 33.5h-120v88h120z" />
<glyph unicode="&#xb4;" horiz-adv-x="562" d="M295 1448h144l3 -5l-244 -255h-105z" />
<glyph unicode="&#xb5;" horiz-adv-x="1271" d="M340 1060v-620q0 -203 69.5 -282.5t188.5 -79.5q134 0 207.5 58.5t100.5 167.5v656l-159 13v87h277v-961l160 -13v-86h-261l-11 152q-47 -83 -123.5 -128t-182.5 -45q-87 0 -154.5 29.5t-111.5 94.5v-511h-116v1368l-159 13v87h159h116z" />
<glyph unicode="&#xb6;" horiz-adv-x="1043" d="M503 86l159 13v411h-103q-230 0 -356.5 126.5t-126.5 331.5q0 203 127 331t356 128h220v-1328l160 -13v-86h-436v86zM939 1427v-87l-160 -13v100h160z" />
<glyph unicode="&#xb7;" horiz-adv-x="486" d="M307 612h-151v176h151v-176z" />
<glyph unicode="&#xb8;" horiz-adv-x="460" d="M245 0l-11 -63q78 -9 125.5 -47.5t47.5 -119.5q0 -89 -77.5 -142.5t-221.5 -53.5l-7 76q87 0 147.5 30t60.5 88q0 56 -40.5 78t-142.5 30l28 124h91z" />
<glyph unicode="&#xb9;" horiz-adv-x="495" d="M341 652h-107v689l-145 -7v91l252 22v-795z" />
<glyph unicode="&#xba;" horiz-adv-x="902" d="M119 1119q0 145 85.5 236.5t229.5 91.5q146 0 232 -91.5t86 -236.5v-115q0 -146 -86 -236.5t-230 -90.5q-146 0 -231.5 90.5t-85.5 236.5v115zM224 1004q0 -104 53.5 -169t158.5 -65q101 0 155.5 65.5t54.5 168.5v115q0 102 -55 167.5t-157 65.5t-156 -65.5t-54 -167.5 v-115z" />
<glyph unicode="&#xbb;" horiz-adv-x="897" d="M206 925l289 -376v-19l-289 -371h-103l271 380l-271 386h103zM514 925l289 -376v-19l-289 -371h-103l271 380l-271 386h103z" />
<glyph unicode="&#xbc;" horiz-adv-x="1462" d="M414 651h-107v689l-145 -7v91l252 23v-796zM373 127l-73 47l697 1115l72 -47zM1281 255h150v-88h-150v-167h-106v167h-423l-3 65l420 553h112v-530zM875 255h300v395l-6 1l-26 -43z" />
<glyph unicode="&#xbd;" horiz-adv-x="1432" d="M384 127l-73 47l697 1115l72 -47zM414 651h-107v689l-145 -7v91l252 23v-796zM1447 0h-558v88l308 277q76 68 102.5 112t26.5 90q0 64 -38 102t-115 38q-85 0 -131 -41.5t-46 -105.5h-98l-2 5q-6 96 71 163.5t206 67.5q121 0 191 -59.5t70 -170.5q0 -73 -46 -133 t-147 -155l-211 -184l3 -6h414v-88z" />
<glyph unicode="&#xbe;" horiz-adv-x="1636" d="M576 127l-73 47l697 1115l72 -47zM1486 255h150v-88h-150v-167h-106v167h-423l-3 65l420 553h112v-530zM1080 255h300v395l-6 1l-26 -43zM414 1098q86 0 127.5 34.5t41.5 96.5q0 58 -44.5 95t-130.5 37q-73 0 -121 -35t-48 -92h-98l-2 6q-6 92 73.5 151t195.5 59 q130 0 205.5 -57.5t75.5 -163.5q0 -58 -34.5 -103.5t-97.5 -69.5q72 -22 109 -69.5t37 -116.5q0 -107 -82 -167t-213 -60q-117 0 -202 57.5t-80 165.5l2 6h99q0 -62 50 -101.5t131 -39.5q88 0 138 37.5t50 101.5q0 73 -45.5 107t-136.5 34h-120v87h120z" />
<glyph unicode="&#xbf;" horiz-adv-x="844" d="M511 664q-2 -128 -23.5 -179t-111.5 -133q-106 -111 -154.5 -185t-48.5 -186q0 -125 66.5 -193.5t190.5 -68.5q115 0 185.5 67t72.5 182h110l2 -6q2 -162 -103 -255t-267 -93q-176 0 -274.5 99t-98.5 267q0 132 64 234t185 214q60 51 73.5 96.5t13.5 139.5h118zM377 1061 h137v-152h-137v152z" />
<glyph unicode="&#xc0;" d="M54 86l105 8l506 1333h111l502 -1333l107 -8v-86h-352v86l124 10l-117 320h-641l-119 -320l125 -10v-86h-351v86zM438 520h564l-278 755h-6zM786 1534h-115l-236 256l2 4h151z" />
<glyph unicode="&#xc1;" d="M54 86l105 8l506 1333h111l502 -1333l107 -8v-86h-352v86l124 10l-117 320h-641l-119 -320l125 -10v-86h-351v86zM438 520h564l-278 755h-6zM826 1779h144l3 -5l-244 -255h-105z" />
<glyph unicode="&#xc2;" d="M54 86l105 8l506 1333h111l502 -1333l107 -8v-86h-352v86l124 10l-117 320h-641l-119 -320l125 -10v-86h-351v86zM438 520h564l-278 755h-6zM993 1579v-18h-110l-164 165l-162 -165h-107v21l221 216h96z" />
<glyph unicode="&#xc3;" d="M54 86l105 8l506 1333h111l502 -1333l107 -8v-86h-352v86l124 10l-117 320h-641l-119 -320l125 -10v-86h-351v86zM438 520h564l-278 755h-6zM1055 1783q0 -86 -54 -143t-134 -57q-73 0 -148 54t-128 54q-46 0 -77.5 -34t-31.5 -87l-78 17q0 85 52.5 142t134.5 57 q63 0 144 -53.5t132 -53.5q45 0 77.5 35t32.5 89z" />
<glyph unicode="&#xc4;" d="M54 86l105 8l506 1333h111l502 -1333l107 -8v-86h-352v86l124 10l-117 320h-641l-119 -320l125 -10v-86h-351v86zM438 520h564l-278 755h-6zM1028 1606h-169v154h169v-154zM568 1606h-170v154h170v-154z" />
<glyph unicode="&#xc5;" d="M54 86l105 8l506 1333h111l502 -1333l107 -8v-86h-352v86l124 10l-117 320h-641l-119 -320l125 -10v-86h-351v86zM438 520h564l-278 755h-6zM555 1706q0 67 48.5 114.5t117.5 47.5q67 0 115 -47.5t48 -114.5q0 -70 -48 -115t-115 -45q-70 0 -118 45t-48 115zM632 1706 q0 -39 26 -64.5t63 -25.5q36 0 60.5 25t24.5 65q0 39 -24.5 65t-60.5 26q-37 0 -63 -26t-26 -65z" />
<glyph unicode="&#xc6;" horiz-adv-x="2016" d="M50 86l127 10l806 1331h847v-301h-105l-9 201h-566l22 -534h577v-100h-573l25 -594h576l9 201h103v-300h-960v86l155 12l-12 283h-585l-169 -287l104 -8v-86h-372v86zM553 492h515l-34 822l-6 1l-15 -43z" />
<glyph unicode="&#xc7;" horiz-adv-x="1322" d="M1205 980h-91l-16 217q-57 67 -148.5 109t-210.5 42q-239 0 -380 -174t-141 -450v-20q0 -276 139.5 -451t366.5 -175q121 0 219.5 42.5t154.5 108.5l16 217h91v-251q-66 -92 -194 -154t-287 -62q-274 0 -448.5 203.5t-174.5 521.5v18q0 319 174 522t455 203 q159 0 284 -62t191 -154v-251zM771 -3l-11 -63q78 -9 125.5 -47.5t47.5 -119.5q0 -89 -77.5 -142.5t-221.5 -53.5l-7 76q87 0 147.5 30t60.5 88q0 56 -40.5 78t-142.5 30l28 124h91z" />
<glyph unicode="&#xc8;" horiz-adv-x="1260" d="M931 691h-585v-592h674l9 214h104v-313h-1063v86l159 13v1228l-159 13v87h159h899v-314h-104l-9 214h-669v-536h585v-100zM688 1536h-115l-236 256l2 4h151z" />
<glyph unicode="&#xc9;" horiz-adv-x="1260" d="M931 691h-585v-592h674l9 214h104v-313h-1063v86l159 13v1228l-159 13v87h159h899v-314h-104l-9 214h-669v-536h585v-100zM728 1781h144l3 -5l-244 -255h-105z" />
<glyph unicode="&#xca;" horiz-adv-x="1260" d="M931 691h-585v-592h674l9 214h104v-313h-1063v86l159 13v1228l-159 13v87h159h899v-314h-104l-9 214h-669v-536h585v-100zM895 1581v-18h-110l-164 165l-162 -165h-107v21l221 216h96z" />
<glyph unicode="&#xcb;" horiz-adv-x="1260" d="M931 691h-585v-592h674l9 214h104v-313h-1063v86l159 13v1228l-159 13v87h159h899v-314h-104l-9 214h-669v-536h585v-100zM930 1608h-169v154h169v-154zM470 1608h-170v154h170v-154z" />
<glyph unicode="&#xcc;" horiz-adv-x="614" d="M89 1340v87h437v-87l-159 -13v-1228l159 -13v-86h-437v86l160 13v1228zM382 1535h-115l-236 256l2 4h151z" />
<glyph unicode="&#xcd;" horiz-adv-x="614" d="M89 1340v87h437v-87l-159 -13v-1228l159 -13v-86h-437v86l160 13v1228zM421 1780h144l3 -5l-244 -255h-105z" />
<glyph unicode="&#xce;" horiz-adv-x="614" d="M89 1340v87h437v-87l-159 -13v-1228l159 -13v-86h-437v86l160 13v1228zM589 1580v-18h-110l-164 165l-162 -165h-107v21l221 216h96z" />
<glyph unicode="&#xcf;" horiz-adv-x="614" d="M89 1340v87h437v-87l-159 -13v-1228l159 -13v-86h-437v86l160 13v1228zM624 1607h-169v154h169v-154zM164 1607h-170v154h170v-154z" />
<glyph unicode="&#xd0;" horiz-adv-x="1402" d="M673 1427q262 0 432.5 -174.5t170.5 -447.5v-184q0 -274 -170.5 -447.5t-432.5 -173.5h-574v86l160 13v576h-158v100h158v552l-160 13v87h574zM701 675h-326v-576h298q212 0 348.5 148t136.5 374v187q0 223 -137 371t-348 148h-298v-552h326v-100z" />
<glyph unicode="&#xd1;" horiz-adv-x="1505" d="M1440 1427v-87l-160 -13v-1327h-117l-810 1227l-6 -1v-1127l160 -13v-86h-437v86l159 13v1228l-159 13v87h159h118l810 -1225l6 1v1124l-159 13v87h276h160zM1059 1785q0 -86 -54 -143t-134 -57q-73 0 -148 54t-128 54q-46 0 -77.5 -34t-31.5 -87l-78 17q0 85 52.5 142 t134.5 57q63 0 144 -53.5t132 -53.5q45 0 77.5 35t32.5 89z" />
<glyph unicode="&#xd2;" horiz-adv-x="1438" d="M1330 704q0 -322 -171.5 -523.5t-446.5 -201.5q-270 0 -439 202t-169 523v18q0 321 168.5 523t438.5 202q275 0 447 -202t172 -523v-18zM1212 724q0 278 -135 449.5t-366 171.5q-226 0 -358 -171.5t-132 -449.5v-20q0 -280 132.5 -451.5t358.5 -171.5q233 0 366.5 171 t133.5 452v20zM781 1546h-115l-236 256l2 4h151z" />
<glyph unicode="&#xd3;" horiz-adv-x="1438" d="M1330 704q0 -322 -171.5 -523.5t-446.5 -201.5q-270 0 -439 202t-169 523v18q0 321 168.5 523t438.5 202q275 0 447 -202t172 -523v-18zM1212 724q0 278 -135 449.5t-366 171.5q-226 0 -358 -171.5t-132 -449.5v-20q0 -280 132.5 -451.5t358.5 -171.5q233 0 366.5 171 t133.5 452v20zM821 1791h144l3 -5l-244 -255h-105z" />
<glyph unicode="&#xd4;" horiz-adv-x="1438" d="M1330 704q0 -322 -171.5 -523.5t-446.5 -201.5q-270 0 -439 202t-169 523v18q0 321 168.5 523t438.5 202q275 0 447 -202t172 -523v-18zM1212 724q0 278 -135 449.5t-366 171.5q-226 0 -358 -171.5t-132 -449.5v-20q0 -280 132.5 -451.5t358.5 -171.5q233 0 366.5 171 t133.5 452v20zM988 1591v-18h-110l-164 165l-162 -165h-107v21l221 216h96z" />
<glyph unicode="&#xd5;" horiz-adv-x="1438" d="M1330 704q0 -322 -171.5 -523.5t-446.5 -201.5q-270 0 -439 202t-169 523v18q0 321 168.5 523t438.5 202q275 0 447 -202t172 -523v-18zM1212 724q0 278 -135 449.5t-366 171.5q-226 0 -358 -171.5t-132 -449.5v-20q0 -280 132.5 -451.5t358.5 -171.5q233 0 366.5 171 t133.5 452v20zM1050 1795q0 -86 -54 -143t-134 -57q-73 0 -148 54t-128 54q-46 0 -77.5 -34t-31.5 -87l-78 17q0 85 52.5 142t134.5 57q63 0 144 -53.5t132 -53.5q45 0 77.5 35t32.5 89z" />
<glyph unicode="&#xd6;" horiz-adv-x="1438" d="M1330 704q0 -322 -171.5 -523.5t-446.5 -201.5q-270 0 -439 202t-169 523v18q0 321 168.5 523t438.5 202q275 0 447 -202t172 -523v-18zM1212 724q0 278 -135 449.5t-366 171.5q-226 0 -358 -171.5t-132 -449.5v-20q0 -280 132.5 -451.5t358.5 -171.5q233 0 366.5 171 t133.5 452v20zM1023 1618h-169v154h169v-154zM563 1618h-170v154h170v-154z" />
<glyph unicode="&#xd7;" horiz-adv-x="1034" d="M77 312l350 357l-336 343l78 79l336 -343l336 343l77 -79l-337 -343l352 -357l-77 -78l-351 357l-350 -357z" />
<glyph unicode="&#xd8;" horiz-adv-x="1379" d="M1324 704q0 -322 -171.5 -523.5t-445.5 -201.5q-96 0 -181.5 27t-155.5 79l-102 -167h-102l138 224q-99 97 -152.5 241.5t-53.5 320.5v18q0 321 168.5 523t439.5 202q94 0 179.5 -26t158.5 -76l80 130h102l-115 -187q101 -98 157 -244t56 -322v-18zM1206 724 q0 145 -39.5 265t-111.5 199l-5 1l-625 -1015q58 -46 128.5 -69.5t153.5 -23.5q232 0 365.5 171t133.5 452v20zM216 704q0 -145 37 -264.5t107 -196.5l6 -1l622 1012q-59 44 -130 67.5t-152 23.5q-227 0 -358.5 -171.5t-131.5 -449.5v-20z" />
<glyph unicode="&#xd9;" horiz-adv-x="1457" d="M495 1427v-87l-160 -13v-867q0 -183 108 -282.5t281 -99.5q177 0 287.5 99t110.5 283v867l-160 13v87h436v-87l-159 -13v-867q0 -234 -142.5 -357.5t-372.5 -123.5q-225 0 -365 124t-140 357v867l-160 13v87h160h116h160zM791 1529h-115l-236 256l2 4h151z" />
<glyph unicode="&#xda;" horiz-adv-x="1457" d="M495 1427v-87l-160 -13v-867q0 -183 108 -282.5t281 -99.5q177 0 287.5 99t110.5 283v867l-160 13v87h436v-87l-159 -13v-867q0 -234 -142.5 -357.5t-372.5 -123.5q-225 0 -365 124t-140 357v867l-160 13v87h160h116h160zM831 1774h144l3 -5l-244 -255h-105z" />
<glyph unicode="&#xdb;" horiz-adv-x="1457" d="M495 1427v-87l-160 -13v-867q0 -183 108 -282.5t281 -99.5q177 0 287.5 99t110.5 283v867l-160 13v87h436v-87l-159 -13v-867q0 -234 -142.5 -357.5t-372.5 -123.5q-225 0 -365 124t-140 357v867l-160 13v87h160h116h160zM998 1574v-18h-110l-164 165l-162 -165h-107v21 l221 216h96z" />
<glyph unicode="&#xdc;" horiz-adv-x="1457" d="M495 1427v-87l-160 -13v-867q0 -183 108 -282.5t281 -99.5q177 0 287.5 99t110.5 283v867l-160 13v87h436v-87l-159 -13v-867q0 -234 -142.5 -357.5t-372.5 -123.5q-225 0 -365 124t-140 357v867l-160 13v87h160h116h160zM1033 1601h-169v154h169v-154zM573 1601h-170 v154h170v-154z" />
<glyph unicode="&#xdd;" horiz-adv-x="1394" d="M446 1340l-137 -10l386 -696l388 696l-137 10v87h393v-87l-122 -10l-464 -809v-422l159 -13v-86h-437v86l160 13v429l-461 802l-120 10v87h392v-87zM806 1774h144l3 -5l-244 -255h-105z" />
<glyph unicode="&#xde;" horiz-adv-x="1231" d="M69 1340v87h276h160v-87l-160 -13v-198h317q217 0 338.5 -112.5t121.5 -293.5t-121 -293t-339 -112h-317v-219l160 -13v-86h-436v86l159 13v1228zM345 1030v-614h317q170 0 256.5 90.5t86.5 214.5q0 128 -86 218.5t-257 90.5h-317z" />
<glyph unicode="&#xdf;" horiz-adv-x="1237" d="M330 0h-276v86l160 13v961q0 200 100 311t267 111q137 0 227.5 -78t90.5 -218q0 -107 -60.5 -211.5t-60.5 -180.5q0 -84 180.5 -223.5t180.5 -281.5q0 -150 -107.5 -230t-261.5 -80q-84 0 -172.5 23t-127.5 56l34 99q39 -31 112 -55t141 -24q122 0 193 59t71 152 q0 97 -180 235.5t-180 271.5q0 91 61.5 197.5t61.5 186.5q0 90 -58.5 146.5t-134.5 56.5q-119 0 -190 -84t-71 -239v-1060z" />
<glyph unicode="&#xe0;" horiz-adv-x="1107" d="M827 0q-12 54 -16.5 93t-4.5 79q-59 -83 -157 -138t-221 -55q-156 0 -241 80.5t-85 217.5q0 147 126.5 233.5t342.5 86.5h235v140q0 114 -73 178.5t-205 64.5q-88 0 -161 -24t-122 -65l-10 -142h-97l1 204q74 56 176 91.5t218 35.5q176 0 282.5 -89t106.5 -256v-521 q0 -33 1.5 -62.5t6.5 -58.5l106 -7v-86h-209zM441 83q127 0 224 59t141 152v213h-237q-159 0 -254.5 -66.5t-95.5 -167.5q0 -85 59 -137.5t163 -52.5zM600 1219h-115l-236 256l2 4h151z" />
<glyph unicode="&#xe1;" horiz-adv-x="1107" d="M827 0q-12 54 -16.5 93t-4.5 79q-59 -83 -157 -138t-221 -55q-156 0 -241 80.5t-85 217.5q0 147 126.5 233.5t342.5 86.5h235v140q0 114 -73 178.5t-205 64.5q-88 0 -161 -24t-122 -65l-10 -142h-97l1 204q74 56 176 91.5t218 35.5q176 0 282.5 -89t106.5 -256v-521 q0 -33 1.5 -62.5t6.5 -58.5l106 -7v-86h-209zM441 83q127 0 224 59t141 152v213h-237q-159 0 -254.5 -66.5t-95.5 -167.5q0 -85 59 -137.5t163 -52.5zM640 1465h144l3 -5l-244 -255h-105z" />
<glyph unicode="&#xe2;" horiz-adv-x="1107" d="M827 0q-12 54 -16.5 93t-4.5 79q-59 -83 -157 -138t-221 -55q-156 0 -241 80.5t-85 217.5q0 147 126.5 233.5t342.5 86.5h235v140q0 114 -73 178.5t-205 64.5q-88 0 -161 -24t-122 -65l-10 -142h-97l1 204q74 56 176 91.5t218 35.5q176 0 282.5 -89t106.5 -256v-521 q0 -33 1.5 -62.5t6.5 -58.5l106 -7v-86h-209zM441 83q127 0 224 59t141 152v213h-237q-159 0 -254.5 -66.5t-95.5 -167.5q0 -85 59 -137.5t163 -52.5zM807 1265v-18h-110l-164 165l-162 -165h-107v21l221 216h96z" />
<glyph unicode="&#xe3;" horiz-adv-x="1107" d="M827 0q-12 54 -16.5 93t-4.5 79q-59 -83 -157 -138t-221 -55q-156 0 -241 80.5t-85 217.5q0 147 126.5 233.5t342.5 86.5h235v140q0 114 -73 178.5t-205 64.5q-88 0 -161 -24t-122 -65l-10 -142h-97l1 204q74 56 176 91.5t218 35.5q176 0 282.5 -89t106.5 -256v-521 q0 -33 1.5 -62.5t6.5 -58.5l106 -7v-86h-209zM441 83q127 0 224 59t141 152v213h-237q-159 0 -254.5 -66.5t-95.5 -167.5q0 -85 59 -137.5t163 -52.5zM869 1469q0 -86 -54 -143t-134 -57q-73 0 -148 54t-128 54q-46 0 -77.5 -34t-31.5 -87l-78 17q0 85 52.5 142t134.5 57 q63 0 144 -53.5t132 -53.5q45 0 77.5 35t32.5 89z" />
<glyph unicode="&#xe4;" horiz-adv-x="1107" d="M827 0q-12 54 -16.5 93t-4.5 79q-59 -83 -157 -138t-221 -55q-156 0 -241 80.5t-85 217.5q0 147 126.5 233.5t342.5 86.5h235v140q0 114 -73 178.5t-205 64.5q-88 0 -161 -24t-122 -65l-10 -142h-97l1 204q74 56 176 91.5t218 35.5q176 0 282.5 -89t106.5 -256v-521 q0 -33 1.5 -62.5t6.5 -58.5l106 -7v-86h-209zM441 83q127 0 224 59t141 152v213h-237q-159 0 -254.5 -66.5t-95.5 -167.5q0 -85 59 -137.5t163 -52.5zM842 1292h-169v154h169v-154zM382 1292h-170v154h170v-154z" />
<glyph unicode="&#xe5;" horiz-adv-x="1107" d="M827 0q-12 54 -16.5 93t-4.5 79q-59 -83 -157 -138t-221 -55q-156 0 -241 80.5t-85 217.5q0 147 126.5 233.5t342.5 86.5h235v140q0 114 -73 178.5t-205 64.5q-88 0 -161 -24t-122 -65l-10 -142h-97l1 204q74 56 176 91.5t218 35.5q176 0 282.5 -89t106.5 -256v-521 q0 -33 1.5 -62.5t6.5 -58.5l106 -7v-86h-209zM441 83q127 0 224 59t141 152v213h-237q-159 0 -254.5 -66.5t-95.5 -167.5q0 -85 59 -137.5t163 -52.5zM369 1391q0 67 48.5 114.5t117.5 47.5q67 0 115 -47.5t48 -114.5q0 -70 -48 -115t-115 -45q-70 0 -118 45t-48 115z M446 1391q0 -39 26 -64.5t63 -25.5q36 0 60.5 25t24.5 65q0 39 -24.5 65t-60.5 26q-37 0 -63 -26t-26 -65z" />
<glyph unicode="&#xe6;" horiz-adv-x="1750" d="M1259 -21q-135 0 -236 54.5t-160 154.5q-48 -85 -156 -147t-264 -62q-167 0 -257.5 83t-90.5 225q0 155 111 243.5t318 88.5h258v87q0 131 -62 202.5t-184 71.5q-132 0 -208.5 -65.5t-76.5 -164.5l-108 11l-2 6q-5 136 104 224.5t291 88.5q123 0 209 -53t126 -154 q60 97 153 152t206 55q196 0 305 -121.5t109 -333.5v-98h-739v-28q0 -187 88 -304t266 -117q101 0 177.5 32t139.5 85l47 -85q-59 -54 -145.5 -92.5t-218.5 -38.5zM460 77q100 0 193.5 52.5t128.5 113.5v282h-256q-152 0 -232.5 -69.5t-80.5 -172.5q0 -95 63 -150.5 t184 -55.5zM1230 980q-135 0 -220 -99.5t-98 -252.5l2 -5h613v31q0 143 -75.5 234.5t-221.5 91.5z" />
<glyph unicode="&#xe7;" horiz-adv-x="1072" d="M548 78q116 0 205.5 67t89.5 185h104l2 -6q5 -147 -117 -246t-284 -99q-216 0 -334.5 148.5t-118.5 382.5v41q0 231 118.5 380t333.5 149q122 0 224 -46t166 -126l5 -231h-100l-19 188q-47 53 -117 84t-159 31q-171 0 -252.5 -122t-81.5 -307v-41q0 -189 81 -310.5 t254 -121.5zM578 -9l-11 -63q78 -9 125.5 -47.5t47.5 -119.5q0 -89 -77.5 -142.5t-221.5 -53.5l-7 76q87 0 147.5 30t60.5 88q0 56 -40.5 78t-142.5 30l28 124h91z" />
<glyph unicode="&#xe8;" horiz-adv-x="1079" d="M563 -21q-200 0 -331.5 146.5t-131.5 373.5v54q0 227 131 377t316 150q195 0 306.5 -123.5t111.5 -329.5v-100h-748v-28q0 -179 95.5 -300t250.5 -121q108 0 185.5 30.5t132.5 87.5l50 -80q-60 -63 -151 -100t-217 -37zM547 980q-130 0 -218.5 -99.5t-103.5 -249.5l2 -5 h622v30q0 138 -81.5 231t-220.5 93zM617 1219h-115l-236 256l2 4h151z" />
<glyph unicode="&#xe9;" horiz-adv-x="1079" d="M563 -21q-200 0 -331.5 146.5t-131.5 373.5v54q0 227 131 377t316 150q195 0 306.5 -123.5t111.5 -329.5v-100h-748v-28q0 -179 95.5 -300t250.5 -121q108 0 185.5 30.5t132.5 87.5l50 -80q-60 -63 -151 -100t-217 -37zM547 980q-130 0 -218.5 -99.5t-103.5 -249.5l2 -5 h622v30q0 138 -81.5 231t-220.5 93zM658 1465h144l3 -5l-244 -255h-105z" />
<glyph unicode="&#xea;" horiz-adv-x="1079" d="M563 -21q-200 0 -331.5 146.5t-131.5 373.5v54q0 227 131 377t316 150q195 0 306.5 -123.5t111.5 -329.5v-100h-748v-28q0 -179 95.5 -300t250.5 -121q108 0 185.5 30.5t132.5 87.5l50 -80q-60 -63 -151 -100t-217 -37zM547 980q-130 0 -218.5 -99.5t-103.5 -249.5l2 -5 h622v30q0 138 -81.5 231t-220.5 93zM824 1265v-18h-110l-164 165l-162 -165h-107v21l221 216h96z" />
<glyph unicode="&#xeb;" horiz-adv-x="1079" d="M563 -21q-200 0 -331.5 146.5t-131.5 373.5v54q0 227 131 377t316 150q195 0 306.5 -123.5t111.5 -329.5v-100h-748v-28q0 -179 95.5 -300t250.5 -121q108 0 185.5 30.5t132.5 87.5l50 -80q-60 -63 -151 -100t-217 -37zM547 980q-130 0 -218.5 -99.5t-103.5 -249.5l2 -5 h622v30q0 138 -81.5 231t-220.5 93zM859 1292h-169v154h169v-154zM399 1292h-170v154h170v-154z" />
<glyph unicode="&#xec;" horiz-adv-x="624" d="M88 973v87h277v-961l159 -13v-86h-436v86l160 13v861zM374 1208h-115l-236 256l2 4h151z" />
<glyph unicode="&#xed;" horiz-adv-x="624" d="M88 973v87h277v-961l159 -13v-86h-436v86l160 13v861zM414 1453h144l3 -5l-244 -255h-105z" />
<glyph unicode="&#xee;" horiz-adv-x="624" d="M88 973v87h277v-961l159 -13v-86h-436v86l160 13v861zM581 1253v-18h-110l-164 165l-162 -165h-107v21l221 216h96z" />
<glyph unicode="&#xef;" horiz-adv-x="624" d="M88 973v87h277v-961l159 -13v-86h-436v86l160 13v861zM616 1280h-169v154h169v-154zM156 1280h-170v154h170v-154z" />
<glyph unicode="&#xf0;" horiz-adv-x="1155" d="M791 1273q109 -119 165 -284t56 -378v-87q0 -240 -134 -392.5t-337 -152.5t-334 134.5t-131 332.5q0 230 127.5 365t340.5 135q102 0 189.5 -39.5t140.5 -104.5l4 5q-18 128 -67 229t-123 178l-302 -172l-50 72l282 161q-44 32 -92.5 59.5t-101.5 50.5l38 102 q75 -30 140.5 -67.5t121.5 -83.5l253 145l50 -73zM896 612q0 9 -0.5 27t-0.5 26q-37 76 -125.5 127.5t-225.5 51.5q-169 0 -259.5 -113t-90.5 -285q0 -146 95 -256t256 -110q156 0 253.5 125t97.5 319v88z" />
<glyph unicode="&#xf1;" horiz-adv-x="1292" d="M74 86l159 13v861l-159 13v87h263l11 -185q51 98 137.5 151.5t205.5 53.5q172 0 262.5 -105.5t90.5 -328.5v-547l159 -13v-86h-437v86l160 13v546q0 182 -68 257.5t-194 75.5q-123 0 -201 -65t-112 -173v-641l160 -13v-86h-437v86zM975 1468q0 -86 -54 -143t-134 -57 q-73 0 -148 54t-128 54q-46 0 -77.5 -34t-31.5 -87l-78 17q0 85 52.5 142t134.5 57q63 0 144 -53.5t132 -53.5q45 0 77.5 35t32.5 89z" />
<glyph unicode="&#xf2;" horiz-adv-x="1128" d="M95 546q0 234 128.5 384t340.5 150t340.5 -150t128.5 -384v-32q0 -236 -128 -385.5t-340 -149.5q-213 0 -341.5 149.5t-128.5 385.5v32zM213 514q0 -185 93 -310.5t259 -125.5q164 0 257 125.5t93 310.5v32q0 181 -93.5 307.5t-257.5 126.5q-165 0 -258 -126.5 t-93 -307.5v-32zM633 1218h-115l-236 256l2 4h151z" />
<glyph unicode="&#xf3;" horiz-adv-x="1128" d="M95 546q0 234 128.5 384t340.5 150t340.5 -150t128.5 -384v-32q0 -236 -128 -385.5t-340 -149.5q-213 0 -341.5 149.5t-128.5 385.5v32zM213 514q0 -185 93 -310.5t259 -125.5q164 0 257 125.5t93 310.5v32q0 181 -93.5 307.5t-257.5 126.5q-165 0 -258 -126.5 t-93 -307.5v-32zM673 1464h144l3 -5l-244 -255h-105z" />
<glyph unicode="&#xf4;" horiz-adv-x="1128" d="M95 546q0 234 128.5 384t340.5 150t340.5 -150t128.5 -384v-32q0 -236 -128 -385.5t-340 -149.5q-213 0 -341.5 149.5t-128.5 385.5v32zM213 514q0 -185 93 -310.5t259 -125.5q164 0 257 125.5t93 310.5v32q0 181 -93.5 307.5t-257.5 126.5q-165 0 -258 -126.5 t-93 -307.5v-32zM840 1264v-18h-110l-164 165l-162 -165h-107v21l221 216h96z" />
<glyph unicode="&#xf5;" horiz-adv-x="1128" d="M95 546q0 234 128.5 384t340.5 150t340.5 -150t128.5 -384v-32q0 -236 -128 -385.5t-340 -149.5q-213 0 -341.5 149.5t-128.5 385.5v32zM213 514q0 -185 93 -310.5t259 -125.5q164 0 257 125.5t93 310.5v32q0 181 -93.5 307.5t-257.5 126.5q-165 0 -258 -126.5 t-93 -307.5v-32zM902 1468q0 -86 -54 -143t-134 -57q-73 0 -148 54t-128 54q-46 0 -77.5 -34t-31.5 -87l-78 17q0 85 52.5 142t134.5 57q63 0 144 -53.5t132 -53.5q45 0 77.5 35t32.5 89z" />
<glyph unicode="&#xf6;" horiz-adv-x="1128" d="M95 546q0 234 128.5 384t340.5 150t340.5 -150t128.5 -384v-32q0 -236 -128 -385.5t-340 -149.5q-213 0 -341.5 149.5t-128.5 385.5v32zM213 514q0 -185 93 -310.5t259 -125.5q164 0 257 125.5t93 310.5v32q0 181 -93.5 307.5t-257.5 126.5q-165 0 -258 -126.5 t-93 -307.5v-32zM875 1291h-169v154h169v-154zM415 1291h-170v154h170v-154z" />
<glyph unicode="&#xf7;" horiz-adv-x="1125" d="M1051 631h-978v114h978v-114zM637 990h-139v157h139v-157zM637 208h-139v157h139v-157z" />
<glyph unicode="&#xf8;" horiz-adv-x="1128" d="M95 546q0 234 128.5 384t340.5 150q60 0 116 -14t106 -40l84 164h91l-107 -210q85 -72 132 -184.5t47 -249.5v-32q0 -236 -128 -385.5t-340 -149.5q-56 0 -107 11t-96 34l-83 -161h-91l104 203q-94 69 -145.5 185.5t-51.5 262.5v32zM213 514q0 -108 32.5 -199t94.5 -144 h6l391 760q-37 24 -81 36.5t-92 12.5q-165 0 -258 -126.5t-93 -307.5v-32zM915 546q0 98 -29 183.5t-83 141.5h-5l-389 -755q33 -19 72 -28.5t84 -9.5q164 0 257 125.5t93 310.5v32z" />
<glyph unicode="&#xf9;" horiz-adv-x="1207" d="M874 174q-50 -93 -136.5 -144t-204.5 -51q-167 0 -262 114t-95 353v514l-131 13v87h131h117v-616q0 -194 66 -278.5t188 -84.5q133 0 212 59t111 163v657l-151 13v87h151h118v-961l142 -13v-86h-245zM614 1208h-115l-236 256l2 4h151z" />
<glyph unicode="&#xfa;" horiz-adv-x="1207" d="M874 174q-50 -93 -136.5 -144t-204.5 -51q-167 0 -262 114t-95 353v514l-131 13v87h131h117v-616q0 -194 66 -278.5t188 -84.5q133 0 212 59t111 163v657l-151 13v87h151h118v-961l142 -13v-86h-245zM655 1453h144l3 -5l-244 -255h-105z" />
<glyph unicode="&#xfb;" horiz-adv-x="1207" d="M874 174q-50 -93 -136.5 -144t-204.5 -51q-167 0 -262 114t-95 353v514l-131 13v87h131h117v-616q0 -194 66 -278.5t188 -84.5q133 0 212 59t111 163v657l-151 13v87h151h118v-961l142 -13v-86h-245zM821 1253v-18h-110l-164 165l-162 -165h-107v21l221 216h96z" />
<glyph unicode="&#xfc;" horiz-adv-x="1207" d="M874 174q-50 -93 -136.5 -144t-204.5 -51q-167 0 -262 114t-95 353v514l-131 13v87h131h117v-616q0 -194 66 -278.5t188 -84.5q133 0 212 59t111 163v657l-151 13v87h151h118v-961l142 -13v-86h-245zM856 1280h-169v154h169v-154zM396 1280h-170v154h170v-154z" />
<glyph unicode="&#xfd;" horiz-adv-x="1150" d="M1112 973l-108 -9l-428 -1134q-41 -107 -106.5 -182.5t-192.5 -75.5q-20 0 -49.5 4.5t-43.5 8.5l14 98q12 -1 38 -3.5t36 -2.5q78 0 123 53.5t79 140.5l55 142l-376 951l-108 9v87h365v-87l-127 -10l259 -676l37 -127h6l290 803l-129 10v87h366v-87zM690 1453h144l3 -5 l-244 -255h-105z" />
<glyph unicode="&#xfe;" horiz-adv-x="1167" d="M46 -320l160 12v1737l-160 13v87h276v-627q53 85 136 131.5t195 46.5q191 0 298.5 -152.5t107.5 -406.5v-20q0 -238 -107.5 -380t-296.5 -142q-112 0 -196 43t-137 121v-451l160 -12v-88h-436v88zM942 521q0 202 -80.5 329.5t-235.5 127.5q-118 0 -192 -56.5t-112 -146.5 v-509q41 -88 116.5 -138t189.5 -50q154 0 234 116t80 307v20z" />
<glyph unicode="&#xff;" horiz-adv-x="1150" d="M1112 973l-108 -9l-428 -1134q-41 -107 -106.5 -182.5t-192.5 -75.5q-20 0 -49.5 4.5t-43.5 8.5l14 98q12 -1 38 -3.5t36 -2.5q78 0 123 53.5t79 140.5l55 142l-376 951l-108 9v87h365v-87l-127 -10l259 -676l37 -127h6l290 803l-129 10v87h366v-87zM892 1280h-169v154 h169v-154zM432 1280h-170v154h170v-154z" />
<glyph unicode="&#x131;" horiz-adv-x="624" d="M88 973v87h277v-961l159 -13v-86h-436v86l160 13v861z" />
<glyph unicode="&#x152;" horiz-adv-x="1931" d="M944 0q-97 -10 -165.5 -15.5t-139.5 -5.5q-235 0 -381 163t-146 422v298q0 260 145.5 422.5t379.5 162.5q73 0 148 -5.5t159 -14.5h871v-314h-104l-9 214h-669v-536h585v-100h-585v-592h674l9 214h104v-313h-876zM639 79q28 0 58 0.5t60 2.5v4l159 13v1228l-159 13v5 q-30 1 -60.5 2t-59.5 1q-188 0 -298 -129.5t-110 -354.5v-300q0 -223 111.5 -354t298.5 -131z" />
<glyph unicode="&#x153;" horiz-adv-x="1877" d="M102 546q0 234 128 384t339 150q143 0 250.5 -71t165.5 -196q58 123 162.5 195t229.5 72q195 0 306.5 -123.5t111.5 -329.5v-100h-748v-28q0 -180 95 -300.5t250 -120.5q109 0 186.5 30.5t132.5 87.5l50 -80q-60 -63 -151.5 -100t-217.5 -37q-136 0 -243.5 71t-165.5 193 q-57 -123 -164 -193.5t-248 -70.5q-212 0 -340.5 149.5t-128.5 385.5v32zM219 514q0 -185 93 -310.5t259 -125.5q164 0 257.5 125.5t93.5 310.5v32q0 181 -94 307.5t-259 126.5q-164 0 -257 -126.5t-93 -307.5v-32zM1377 980q-129 0 -218 -99.5t-104 -249.5l2 -5h622v30 q0 138 -81.5 231t-220.5 93z" />
<glyph unicode="&#x178;" horiz-adv-x="1394" d="M446 1340l-137 -10l386 -696l388 696l-137 10v87h393v-87l-122 -10l-464 -809v-422l159 -13v-86h-437v86l160 13v429l-461 802l-120 10v87h392v-87zM1007 1601h-169v154h169v-154zM547 1601h-170v154h170v-154z" />
<glyph unicode="&#x2c6;" horiz-adv-x="784" d="M645 1245v-18h-110l-164 165l-162 -165h-107v21l221 216h96z" />
<glyph unicode="&#x2da;" horiz-adv-x="638" d="M135 1298q0 67 48.5 114.5t117.5 47.5q67 0 115 -47.5t48 -114.5q0 -70 -48 -115t-115 -45q-70 0 -118 45t-48 115zM212 1298q0 -39 26 -64.5t63 -25.5q36 0 60.5 25t24.5 65q0 39 -24.5 65t-60.5 26q-37 0 -63 -26t-26 -65z" />
<glyph unicode="&#x2dc;" horiz-adv-x="915" d="M775 1451q0 -86 -54 -143t-134 -57q-73 0 -148 54t-128 54q-46 0 -77.5 -34t-31.5 -87l-78 17q0 85 52.5 142t134.5 57q63 0 144 -53.5t132 -53.5q45 0 77.5 35t32.5 89z" />
<glyph unicode="&#x2000;" horiz-adv-x="934" />
<glyph unicode="&#x2001;" horiz-adv-x="1868" />
<glyph unicode="&#x2002;" horiz-adv-x="934" />
<glyph unicode="&#x2003;" horiz-adv-x="1868" />
<glyph unicode="&#x2004;" horiz-adv-x="622" />
<glyph unicode="&#x2005;" horiz-adv-x="467" />
<glyph unicode="&#x2006;" horiz-adv-x="311" />
<glyph unicode="&#x2007;" horiz-adv-x="311" />
<glyph unicode="&#x2008;" horiz-adv-x="233" />
<glyph unicode="&#x2009;" horiz-adv-x="373" />
<glyph unicode="&#x200a;" horiz-adv-x="103" />
<glyph unicode="&#x2010;" horiz-adv-x="777" d="M619 559h-468v99h468v-99z" />
<glyph unicode="&#x2011;" horiz-adv-x="777" d="M619 559h-468v99h468v-99z" />
<glyph unicode="&#x2012;" horiz-adv-x="777" d="M619 559h-468v99h468v-99z" />
<glyph unicode="&#x2013;" horiz-adv-x="1378" d="M1209.69 672h-1063.39v100h1063.39v-100z" />
<glyph unicode="&#x2014;" horiz-adv-x="1613" d="M1423.38 672h-1308.78v100h1308.78v-100z" />
<glyph unicode="&#x2018;" horiz-adv-x="356" d="M96 1223q0 91 36.5 177t100.5 146l71 -50q-47 -65 -68.5 -128.5t-21.5 -141.5v-171h-118v168z" />
<glyph unicode="&#x2019;" horiz-adv-x="356" d="M268 1357q0 -92 -37 -178t-101 -145l-69 51q46 64 68 127.5t22 141.5v175h117v-172z" />
<glyph unicode="&#x201a;" horiz-adv-x="345" d="M247 87q0 -90 -37 -176t-100 -146l-70 51q46 64 68 127.5t22 141.5v169h117v-167z" />
<glyph unicode="&#x201c;" horiz-adv-x="599" d="M96 1223q0 91 36.5 177t100.5 146l71 -50q-47 -65 -68.5 -128.5t-21.5 -141.5v-171h-118v168zM338 1223q0 91 36.5 177t100.5 146l71 -50q-47 -65 -68.5 -128.5t-21.5 -141.5v-171h-118v168z" />
<glyph unicode="&#x201d;" horiz-adv-x="604" d="M274 1357q0 -92 -37 -178t-101 -145l-69 51q46 64 68 127.5t22 141.5v175h117v-172zM513 1357q0 -92 -37 -178t-101 -145l-69 51q46 64 68 127.5t22 141.5v175h117v-172z" />
<glyph unicode="&#x201e;" horiz-adv-x="581" d="M247 87q0 -90 -37 -176t-100 -146l-70 51q46 64 68 127.5t22 141.5v169h117v-167zM476 87q0 -90 -36.5 -176t-100.5 -146l-69 51q45 64 67 127.5t22 141.5v169h117v-167z" />
<glyph unicode="&#x2022;" horiz-adv-x="657" d="M132 766q0 78 49 127t132 49t132.5 -49.5t49.5 -126.5v-63q0 -78 -49.5 -126t-131.5 -48q-84 0 -133 48t-49 126v63z" />
<glyph unicode="&#x2026;" horiz-adv-x="1271" d="M297 0h-134v161h134v-161zM698 0h-134v161h134v-161zM1083 0h-134v161h134v-161z" />
<glyph unicode="&#x202f;" horiz-adv-x="373" />
<glyph unicode="&#x2039;" horiz-adv-x="562" d="M188 544l271 -380h-103l-289 371v19l289 371h103z" />
<glyph unicode="&#x203a;" horiz-adv-x="561" d="M184 925l289 -376v-19l-289 -371h-103l271 380l-271 386h103z" />
<glyph unicode="&#x2044;" horiz-adv-x="866" d="M114 119l-73 47l697 1115l72 -47z" />
<glyph unicode="&#x205f;" horiz-adv-x="467" />
<glyph unicode="&#x20ac;" horiz-adv-x="1029" d="M887 522h-535v-18q0 -194 99.5 -310t266.5 -116q56 0 111 8.5t105 25.5l9 -102q-53 -15 -110.5 -23t-114.5 -8q-216 0 -350 142.5t-134 382.5v18h-164v87h164v191h-164v87h164v36q0 239 133 381.5t349 142.5q55 0 109.5 -7.5t117.5 -22.5l-9 -104q-52 16 -107.5 25.5 t-110.5 9.5q-168 0 -266 -114t-98 -309v-38h535v-87h-535v-191h535v-87z" />
<glyph unicode="&#x2122;" horiz-adv-x="1221" d="M1000 1278l-6 1l-158 -378h-50l-161 391l-6 -1v-390h-70v526h91l168 -415h6l171 415h85v-526h-70v377zM472 1359h-150v-458h-71v458h-155v68h376v-68z" />
<glyph unicode="&#x2212;" horiz-adv-x="1120" d="M969 672h-818v100h818v-100z" />
<glyph unicode="&#xe000;" horiz-adv-x="1058" d="M0 1058h1058v-1058h-1058v1058z" />
<glyph unicode="&#xfb03;" horiz-adv-x="1895" d="M78 964v96h176v155q0 160 80.5 247t224.5 87q31 0 64.5 -4.5t67.5 -13.5l-15 -97q-23 6 -47.5 9t-58.5 3q-96 0 -147.5 -60.5t-51.5 -170.5v-155h253v-96h-253v-865l160 -13v-86h-437v86l160 13v865h-176zM784 86l159 13v865h-175v96h175v136q0 169 93.5 261t259.5 92 q65 0 132.5 -14.5t137.5 -42.5l-19 -101q-59 24 -116 38t-128 14q-120 0 -181 -64t-61 -183v-136h608v-961l160 -13v-86h-436v86l160 13v865h-492v-865l160 -13v-86h-437v86z" />
<glyph unicode="&#xfb04;" horiz-adv-x="2018" d="M78 964v96h176v155q0 160 80.5 247t224.5 87q31 0 64.5 -4.5t67.5 -13.5l-15 -97q-23 6 -47.5 9t-58.5 3q-96 0 -147.5 -60.5t-51.5 -170.5v-155h253v-96h-253v-865l160 -13v-86h-437v86l160 13v865h-176zM788 964v96h176v155q0 160 80.5 247t224.5 87q31 0 64.5 -4.5 t67.5 -13.5l-15 -97q-23 6 -47.5 9t-58.5 3q-96 0 -147.5 -60.5t-51.5 -170.5v-155h253v-96h-253v-865l160 -13v-86h-437v86l160 13v865h-176zM1493 1442v87h276v-1430l160 -13v-86h-436v86l159 13v1330z" />
<glyph horiz-adv-x="527" d="M343 0h-107v689l-145 -7v91l252 23v-796z" />
<glyph horiz-adv-x="816" d="M669 0h-558v88l308 277q76 68 102.5 112t26.5 90q0 64 -38 102t-115 38q-85 0 -131 -41.5t-46 -105.5h-98l-2 5q-6 96 71 163.5t206 67.5q121 0 191 -59.5t70 -170.5q0 -73 -46 -133t-147 -155l-211 -184l3 -6h414v-88z" />
<glyph horiz-adv-x="825" d="M390 444q86 0 127.5 34.5t41.5 96.5q0 58 -44.5 95t-130.5 37q-73 0 -121 -35t-48 -92h-98l-2 6q-6 92 73.5 151t195.5 59q130 0 205.5 -57.5t75.5 -163.5q0 -58 -34.5 -103.5t-97.5 -69.5q72 -22 109 -69.5t37 -116.5q0 -107 -82 -167t-213 -60q-117 0 -202 57.5 t-80 165.5l2 6h99q0 -62 50 -101.5t131 -39.5q88 0 138 37.5t50 101.5q0 73 -45.5 107t-136.5 34h-120v87h120z" />
<glyph horiz-adv-x="864" d="M608 255h150v-88h-150v-167h-106v167h-423l-3 65l420 553h112v-530zM202 255h300v395l-6 1l-26 -43z" />
</font>
</defs>
</svg>
